<?xml version="1.0" encoding="UTF-8" standalone="no"?>
<!-- Created with Inkscape (http://www.inkscape.org/) -->

<svg
   xmlns:svg="http://www.w3.org/2000/svg"
   xmlns="http://www.w3.org/2000/svg"
   version="1.2"
   width="38.217999"
   height="32.688"
   viewBox="0 0 38.218 32.688"
   id="Layer_1"
   xml:space="preserve"
   style="overflow:inherit"><defs
   id="defs7" />
<path
   d="m 12.126,0 c 2.033,0.658 3.394,1.99 3.701,4.374 3.03,-0.601 5.058,1.056 6.729,2.355 5.89,0.391 13.342,-0.781 14.468,4.374 -0.726,1.741 -0.675,4.26 -2.019,5.383 -0.346,2.757 0.961,3.861 1.851,5.384 0.138,-0.941 -1.188,-2.905 0,-4.038 -0.017,-0.689 -0.033,-1.379 0.168,-1.85 0.098,-1.139 -0.373,-4.576 0,-4.879 -0.322,0.982 1.821,7.991 1.01,12.281 -0.529,0.192 -0.409,-0.264 -0.673,-0.337 -0.912,2.887 0.214,7.354 -1.01,9.59 -0.561,0 -1.121,0 -1.683,0 -0.132,-0.974 0.375,-1.308 0.842,-1.683 0.571,-1.726 0.312,-4.247 0,-6.057 -0.561,-0.448 -0.696,-1.322 -1.178,-1.851 -1.359,3.016 -2.878,5.871 -4.206,8.917 -0.689,-0.164 -1.078,0.416 -1.514,0 1.182,-2.127 2.46,-4.157 3.364,-6.562 0.259,-3.398 -1.079,-5.201 -1.514,-7.906 -1.277,-0.268 -1.311,0.708 -1.683,1.346 -0.996,0.406 -1.494,1.31 -2.523,1.683 -1.82,-0.28 -4.689,-1.544 -6.393,-0.337 0.307,4.797 2.694,7.512 3.196,12.112 -0.79,-0.174 -0.647,0.586 -1.514,0.337 0.062,-0.286 -0.132,-0.317 -0.337,-0.337 -0.125,-0.854 0.663,-0.794 0.673,-1.514 -0.618,-2.521 -1.862,-4.419 -3.196,-6.225 -0.023,-2.332 -0.639,-4.071 -2.019,-5.047 -1.436,3.612 -0.829,9.265 -2.019,13.122 -0.617,0 -1.234,0 -1.851,0 -0.301,-0.809 0.922,-0.74 1.178,-1.515 0.518,-1.571 -0.122,-4.269 -0.337,-5.552 C 15.541,20.56 11.556,17.878 9.6,15.138 8.551,14.941 7.855,15.21 7.077,14.97 6.783,13.461 6.443,12.408 6.909,10.932 5.388,9.654 6.178,6.061 4.388,5.047 3.017,5.399 1.548,6.659 0.182,5.552 -0.475,3.14 0.7,1.3 2.873,1.178 2.033,2.077 -0.272,2.425 0.854,4.71 3.484,5.041 4.535,3.793 6.069,3.028 9.381,2.16 11.391,4.376 14.144,3.364 14.594,1.121 12.595,1.326 12.126,0 z"
   id="path3"
   style="fill-rule:evenodd" />
</svg>