<?xml version="1.0" encoding="UTF-8" standalone="no"?>
<!-- Created with Inkscape (http://www.inkscape.org/) -->

<svg
   xmlns:svg="http://www.w3.org/2000/svg"
   xmlns="http://www.w3.org/2000/svg"
   version="1.2"
   width="327.23599"
   height="271.32001"
   viewBox="0 0 327.236 271.32"
   id="Layer_1"
   xml:space="preserve"
   style="overflow:inherit"><defs
   id="defs7" />
<path
   d="m 159.483,271.32 c -0.222,-0.377 0.301,-0.512 0,-1.08 -0.546,-0.147 -0.471,0.329 -0.96,0.239 -0.159,0.301 0.559,0.292 0.12,0.48 -1.382,-0.071 -4.14,0.07 -4.32,-1.44 -3.881,-0.069 -2.774,-4.856 0.6,-4.92 -2.712,-1.391 0.659,-3.979 1.2,-5.76 1.882,-0.998 3.206,-2.554 4.68,-3.96 1.3,0.107 2.772,0.026 4.2,0.479 1.307,-0.333 2.483,-0.796 3.84,-1.079 -0.121,-0.002 -0.151,-0.211 0,-0.24 0.832,0.136 0.942,-0.598 2.04,-0.48 0.158,-0.3 -0.475,-0.375 -0.12,-0.479 1.054,-0.146 1.958,-0.442 2.04,-1.561 -1.191,-0.951 -3.032,-0.663 -4.56,-1.08 -1.448,-0.395 -2.263,-1.731 -2.521,-3.239 1.07,-1.438 2.61,-1.363 4.08,-1.561 1.026,-0.138 1.606,-0.908 2.64,-1.08 1.736,-0.288 3.438,0.812 5.4,1.32 0.982,0.254 1.84,0.282 2.64,0.84 -0.033,-0.273 0.029,-0.451 0.24,-0.479 0.236,0.287 0.753,0.366 0.48,0.84 0.386,-0.026 0.507,0.212 0.96,0.12 0.361,-0.226 -0.457,-0.556 -0.12,-0.721 0.8,0.265 1.557,0.484 2.399,0.12 0.367,-0.315 -0.486,-0.404 -0.12,-0.72 0.753,0.152 0.782,-0.418 1.2,-0.6 -0.474,-0.767 0.306,-1.468 0.48,-2.28 -0.83,0.127 -0.508,-0.436 -0.48,-0.96 -0.273,0.033 -0.451,-0.029 -0.479,-0.24 0.122,-0.438 0.166,-0.953 0.479,-1.2 0.227,0.238 0.532,0.328 0.48,-0.24 -0.354,0.08 -0.992,-0.18 -1.2,-0.6 0.183,-0.436 0.661,-0.381 0.96,-0.12 0.118,-0.281 0.211,-0.589 0.24,-0.96 -0.378,-0.058 -0.271,0.368 -0.721,0.24 -0.062,-0.658 -0.948,-0.491 -0.96,-1.2 0.379,-0.177 0.716,0.551 0.721,0 0.352,-0.102 -0.156,-0.302 0,-0.6 -0.384,-0.017 -0.919,0.118 -0.84,-0.36 0.344,-0.33 0.637,0.068 0.96,0.12 0,-0.28 0,-0.56 0,-0.84 -0.357,-0.005 -0.96,0.356 -1.08,-0.12 -0.045,-0.799 1.02,-0.595 0.84,-1.2 -0.367,-0.087 -0.354,0.207 -0.72,0.12 -0.056,-0.385 -0.457,-0.423 -0.48,-0.84 0.287,0.072 0.548,0.172 0.96,0.12 0.144,-1.104 -1.265,-0.655 -1.2,-1.681 0.219,-0.306 0.218,-0.901 0.721,-0.6 -0.097,-0.416 0.179,-0.461 0.119,-0.84 -0.529,-0.168 -0.688,-0.086 -0.96,0.24 -0.201,-0.328 -0.39,-1.142 -0.119,-1.561 -1.027,-0.68 -0.483,-2.209 -1.2,-3.12 0.312,0.048 0.361,0.358 0.72,0.36 0.125,-0.725 -0.381,-0.818 -0.48,-1.32 -0.604,-0.016 0.177,0.608 -0.359,0.601 -0.492,-0.334 0.028,-0.994 -0.24,-1.44 0.229,-0.225 0.302,-0.013 0.6,0 0.097,-0.416 -0.179,-0.461 -0.119,-0.84 -0.524,0.037 -0.534,-0.355 -0.96,-0.12 -0.118,-0.883 -0.635,-2.004 -0.601,-2.64 0.193,0.286 0.559,0.401 0.96,0.479 0.156,-0.298 -0.352,-0.498 0,-0.6 0.369,-0.09 0.23,0.329 0.601,0.24 0.069,-0.39 -0.082,-0.559 -0.12,-0.841 -0.445,-0.004 -0.696,0.185 -0.96,0.36 -0.22,-0.304 -1.133,-0.542 -0.721,-1.08 0.115,0.205 0.377,0.263 0.601,0.36 -0.278,-0.678 0.532,-0.268 0.479,-0.721 -0.028,-0.171 -0.197,-0.202 -0.239,-0.359 -0.367,-0.007 -0.288,0.432 -0.721,0.359 -0.547,-0.373 -0.722,-1.117 -0.84,-1.92 0.328,0.047 0.512,0.555 0.84,0.24 0.087,-0.367 -0.207,-0.353 -0.12,-0.72 -0.229,-0.225 -0.301,-0.013 -0.6,0 -0.176,-0.265 -0.364,-0.516 -0.36,-0.96 0.298,-0.143 0.445,-0.436 0.36,-0.96 -0.267,0.052 -0.65,0.275 -0.72,-0.12 -0.008,-0.488 0.38,-0.58 0.359,-1.08 -0.915,-0.336 -0.002,-2.258 -0.96,-2.76 0.191,-0.329 0.315,-0.726 0.36,-1.2 -0.253,-0.292 -0.533,0.106 -0.72,-0.12 -0.121,-0.636 -0.821,-1.072 -0.36,-1.92 -1.272,-0.142 -0.591,-1.627 -1.32,-2.16 0.224,-0.876 1.331,-2.586 0.601,-3.24 -0.296,0.345 -0.274,1.007 -0.721,1.2 -0.534,-0.467 -0.03,-1.295 0.12,-1.8 -0.153,-0.206 -0.571,-0.148 -0.6,-0.48 0.609,-1.331 0.648,-2.491 0.96,-4.079 -0.532,-0.243 -0.483,0.704 -0.72,0.359 0.037,-0.642 0.27,-1.09 0.479,-1.56 -0.307,-0.131 -0.572,0.364 -0.72,0 0.647,-1.207 0.899,-2.697 1.08,-4.08 -1.119,-0.079 -0.201,1.879 -1.08,2.04 -0.026,-0.986 0.134,-1.786 0.479,-2.4 0.229,0.052 0.218,0.343 0.601,0.24 -0.104,-0.696 -0.203,-1.396 -0.24,-2.16 -0.298,0.018 -0.582,0.022 -0.6,-0.24 0.672,-1.448 0.017,-3.57 0.72,-5.159 -0.463,-1.392 -0.166,-2.91 -0.36,-4.44 -0.085,-0.671 -0.472,-1.239 -0.6,-1.92 -0.585,-3.122 0.167,-5.929 -0.12,-9.48 -0.814,-1.185 0.142,-3.042 1.44,-3.239 0.084,-0.796 0.563,-1.197 0.72,-1.92 0.352,0.031 0.369,-0.271 0.72,-0.24 1.295,-1.865 3.245,-3.075 4.2,-5.28 -0.615,-0.095 -0.509,0.531 -1.08,0.48 0.522,-1.238 2.146,-1.374 3.24,-2.04 -1.345,-0.735 -2.47,1.226 -3.48,1.199 0.137,-0.503 0.543,-0.737 0.96,-0.96 0.148,-0.388 -0.388,-0.091 -0.239,-0.479 0.295,-0.623 1.556,-1.107 1.92,-2.04 -0.683,-0.079 -0.878,0.958 -1.44,0.6 0.211,-0.649 1.158,-0.997 0.96,-1.68 0.603,0.275 1.076,-0.273 1.44,-0.6 -0.438,-0.065 -1.066,0.427 -1.08,-0.24 1.637,-0.563 3.428,-0.972 4.439,-2.16 0.153,0.007 0.167,0.153 0.36,0.12 -0.153,-0.714 0.629,-0.491 0.6,-1.08 -0.55,-0.03 -0.496,0.543 -1.08,0.48 -0.009,-0.209 0.027,-0.374 0.12,-0.48 -0.864,0.137 -1.326,1.312 -2.159,1.08 1.744,-1.157 1.936,-3.127 3.84,-4.08 -0.432,-0.759 0.524,-0.825 0.6,-1.44 -0.416,-0.049 -0.666,0.686 -0.96,0.36 0.788,-1.012 1.909,-1.691 3,-2.4 0.591,0.071 0.924,-0.115 0.84,-0.72 -0.28,0 -0.56,0 -0.84,0 -0.149,0.451 -0.495,0.705 -1.08,0.72 0.302,-1.138 1.831,-1.049 2.16,-2.159 -0.661,-0.138 -0.738,0.937 -1.2,0.6 0.681,-1.279 1.95,-1.97 3.24,-2.64 -0.084,-0.925 0.865,-0.814 0.96,-1.561 -0.916,-0.036 -0.924,0.837 -1.68,0.96 0.56,-1.6 2.715,-1.604 3.479,-3 -0.56,-0.22 -1.211,1.314 -1.92,0.6 -0.346,0.178 -0.727,0.948 -1.2,0.6 1.378,-1.743 3.835,-2.405 5.28,-4.08 -0.607,-0.087 -0.711,0.33 -1.2,0.36 -0.294,-0.283 0.18,-0.224 0.12,-0.6 -1.229,0.006 -2.413,0.663 -3.359,0.24 -0.207,0.796 -1.641,0.262 -2.4,0.24 -0.165,0.273 0.31,0.451 0,0.48 -0.972,-0.237 -1.054,0.068 -1.68,0.36 0.001,-0.238 0.327,-0.152 0.239,-0.48 -0.281,-0.038 -0.45,-0.189 -0.84,-0.12 -0.021,0.18 0.043,0.443 -0.12,0.48 -1.703,0.575 -3.594,0.1 -5.279,0.36 0.669,0.488 2.47,-0.063 3.119,0.72 -1.25,0.03 -2.135,0.425 -3.119,0.72 -0.226,-0.229 -0.014,-0.302 0,-0.6 -1.375,-0.171 -2.88,-0.032 -4.44,-0.24 0.62,0.82 2.813,0.067 3.479,0.84 -0.522,0.077 -1.356,-0.157 -1.68,0.12 0.917,0.158 -0.667,0.391 -0.84,0.6 -0.138,0.377 0.188,0.292 0.24,0.48 -1.304,0.457 -2.778,0.742 -3.84,1.44 0.106,-0.693 0.869,-0.73 0.84,-1.561 -0.675,0.006 -1.427,-0.066 -1.8,0.24 0.388,0.052 1.037,-0.158 1.079,0.24 -0.921,0.364 -2.33,0.23 -2.64,0.6 0.129,0.493 1.14,-0.164 1.32,0.48 -1.086,0.062 -1.849,-0.024 -3.12,0 0.064,1.087 1.21,-0.268 1.56,0.479 -0.685,0.555 -1.997,0.483 -3.239,0.48 -0.164,0.523 0.464,0.255 0.359,0.72 -0.905,0.634 -2.033,0.849 -3.72,1.08 -0.177,0.456 0.536,0.023 0.36,0.48 -0.849,0.432 -2.315,0.244 -3.36,0.479 -0.098,0.415 0.224,0.507 0,0.72 -0.4,0 -0.8,0 -1.2,0 0.033,0.273 -0.028,0.451 -0.24,0.48 -2.244,0.232 -3.889,-1.374 -5.52,-0.96 0.981,0.549 3.075,0.673 4.32,1.319 -2.092,0.376 -4.184,-1.463 -5.88,-1.08 1.624,0.537 3.225,1.095 4.8,1.681 -0.8,0.055 -1.287,0.33 -1.92,-0.12 -0.888,1.161 -3.021,-0.03 -4.08,-0.24 0.015,0.301 0.229,0.376 -0.12,0.48 -1.21,-0.131 -1.772,-0.602 -3,-0.36 -0.1,-0.339 0.169,-0.311 0.12,-0.6 -1.108,0.226 -2.483,0.596 -3.36,0.12 -0.522,0.786 -1.63,0.664 -2.4,0.96 0.107,-0.388 -0.392,-0.169 -0.48,-0.36 -0.133,0.763 -1.244,0.403 -1.68,0.36 -0.398,1.471 -1.562,0.977 -2.64,0.6 0.389,0.772 1.577,0.982 2.04,0.72 -0.146,0.842 0.339,0.966 -0.48,1.2 0.909,0.131 1.264,0.816 1.56,1.56 -0.438,0.043 -0.748,0.213 -1.08,0.36 0.347,0.174 0.712,0.328 0.96,0.601 0.386,0.105 0.165,-0.396 0.48,-0.36 0.148,0.531 0.741,0.618 0.84,1.2 -0.539,0.077 -0.943,-0.331 -1.2,0.12 0.187,0.031 0.083,0.263 0,0.359 0.688,0.195 1.154,0.471 1.8,0.12 -0.056,0.442 -0.053,0.684 -0.48,0.96 1.16,0.038 2.266,1.009 1.8,1.92 0.722,0.118 1.209,0.471 1.44,1.08 -0.648,0.29 -1.358,-0.294 -2.16,-0.24 0.245,0.621 0.883,0.571 1.56,0.96 -0.028,-0.771 0.492,-0.248 0.96,-0.479 -0.051,0.229 -0.258,0.302 -0.24,0.6 0.273,0.165 0.451,-0.309 0.48,0 -0.882,1.846 1.624,1.009 1.44,2.521 0.863,0.217 1.277,0.883 1.8,1.439 -0.204,0.405 -0.835,-0.363 -0.84,0.24 0.595,0.005 1.293,-0.093 1.44,0.36 -0.925,0.302 -2.02,-0.204 -2.88,-0.36 -0.057,0.617 0.965,0.155 0.72,0.96 0.375,0.185 1.173,-0.052 1.32,0.36 0.038,0.318 -0.672,-0.112 -0.48,0.359 0.897,-0.057 0.779,0.901 1.32,1.2 0.956,-0.035 1.283,0.558 1.56,1.2 -0.782,0.143 -0.88,-0.399 -1.44,-0.48 0.785,1.268 2.618,2.727 2.4,4.2 -0.377,-0.103 -0.267,-0.693 -0.72,-0.72 -0.073,1.152 1.708,2.101 0.72,3 0.154,0.73 0.961,1.938 0.36,2.64 0.016,-0.215 -0.119,-0.28 -0.36,-0.239 0.21,0.833 -0.128,2.09 0.72,2.52 -0.585,0.184 -0.06,1.34 -0.96,1.44 -0.368,2.09 1.264,4.146 0.48,6.239 0.058,0.312 0.621,0.81 0.12,0.961 -0.567,-0.433 -0.307,-1.693 -1.08,-1.921 0.313,1.638 0.386,2.97 0.6,4.2 0.527,-0.087 0.622,0.258 0.72,0.601 -0.238,0.199 -0.152,-0.011 -0.48,0 0.3,0.492 -0.216,0.479 -0.12,1.079 0.141,0.02 0.341,-0.021 0.36,0.12 -0.141,0.02 -0.34,-0.021 -0.36,0.12 0.572,1.029 1.06,2.78 1.2,3.84 -0.504,-0.016 -0.297,-0.743 -0.84,-0.72 0.039,0.282 0.19,0.45 0.12,0.84 1.293,1.061 1.357,3.483 1.68,4.92 -0.515,0.035 -0.395,-0.565 -0.84,-0.6 -0.089,0.93 0.925,0.755 1.08,1.44 -0.073,0.166 -0.462,0.018 -0.48,0.239 0.303,0.178 0.496,0.464 0.6,0.841 -0.018,0.222 -0.406,0.073 -0.48,0.239 0.034,0.566 0.491,0.71 0.6,1.2 -0.089,0.191 -0.587,-0.027 -0.48,0.36 0.958,0.206 -0.09,0.964 0.6,1.319 -0.12,0 -0.24,0 -0.36,0 0.579,1.113 -0.115,1.408 0.48,2.4 -0.112,0.128 -0.443,0.037 -0.36,0.36 0.605,0.964 0.021,2.173 0.36,3.239 -0.232,0.209 -0.608,0.272 -0.84,0.48 0.392,1.438 0.794,2.116 0,3.359 0.163,0.834 0.165,1.183 -0.24,1.921 0.084,0.298 0.366,1.26 -0.24,1.199 0.683,1.117 -0.402,2.47 0.12,3.48 -0.339,0.099 -0.311,-0.169 -0.6,-0.12 0.155,0.348 0.912,1.023 0.24,1.44 -0.015,-0.306 -0.174,-0.466 -0.479,-0.48 -0.408,1.517 1.055,2.796 0.36,4.2 -0.435,-0.325 -0.486,-1.034 -1.08,-1.2 -0.391,1.354 1.11,1.116 1.2,2.521 -0.289,0.049 -0.261,-0.22 -0.6,-0.12 0.155,0.725 0.756,1.003 0.6,2.04 -0.229,0.225 -0.217,-0.071 -0.6,0 -0.077,0.477 0.152,0.647 0.36,0.84 -0.882,0.689 0.878,3.731 -0.24,5.04 -0.09,0.369 0.329,0.23 0.24,0.6 -0.151,0.062 -0.729,0.293 -0.36,0.48 0.209,-0.279 0.561,0.312 0.48,0.72 -0.349,0.023 -0.453,0.045 -0.6,0.48 -0.41,0.09 -0.152,-0.488 -0.6,-0.36 -0.012,0.935 1.685,1.297 0.96,2.16 -0.142,-0.226 -0.346,-1.005 -0.72,-0.601 0.139,0.501 0.554,0.727 0.84,1.08 0.13,0.877 -0.298,0.881 -0.12,1.561 -0.177,-0.062 -0.302,-0.178 -0.48,-0.24 -0.092,0.572 0.428,0.532 0.36,1.08 -0.415,-0.095 -0.528,0.112 -0.6,0.359 0.282,0.238 0.615,0.426 0.48,1.08 -0.2,0 -0.4,0 -0.6,0 1.154,0.913 -0.004,2.285 0.48,3.24 -0.39,0.188 -0.646,-0.62 -0.72,0 0.047,0.513 0.707,0.412 0.72,0.96 -0.72,0.336 -0.099,1.297 -0.12,1.92 -0.339,0.1 -0.311,-0.169 -0.6,-0.12 -0.182,0.821 0.279,1.001 0.6,1.32 -0.219,0.395 -0.187,1.719 -0.84,2.04 0.11,1.028 -0.306,2.357 -1.08,2.88 -0.374,1.967 -2.096,3.568 -3,5.4 -1.533,0.547 -2.066,2.094 -3.96,2.279 -0.167,0.153 -0.052,0.588 -0.36,0.601 -1.043,0.276 -1.353,1.287 -2.52,1.439 -1.135,1.146 -2.309,2.252 -3.96,2.88 -0.716,0.938 -2.209,2.372 -3.72,3.36 -0.756,0.495 -2.151,1.424 -3,1.44 -1.046,0.02 -1.969,-0.758 -1.92,-1.681 0.059,-1.094 1.649,-1.284 1.68,-2.399 -2.923,0.557 -4.587,2.373 -7.32,3.12 -0.63,-0.37 -1.471,-0.529 -1.56,-1.44 -0.457,-0.131 -0.749,0.317 -0.84,-0.12 0.775,-1.265 2.319,-1.761 2.64,-3.479 -1.657,0.863 -3.431,1.609 -4.68,2.88 -1.16,-0.601 -2.188,-1.332 -3,-2.28 0.262,-0.298 -0.14,-1.26 0.48,-1.2 0.027,0.502 -0.195,0.567 0,0.96 0.709,-0.931 1.634,-1.646 2.04,-2.88 -1.36,0.399 -2.01,1.511 -3.6,1.681 -0.482,-0.531 -0.992,-1.306 -0.96,-2.04 0.023,-0.532 0.542,-0.927 0.84,-1.561 0.47,-0.997 0.835,-2.523 1.44,-3.24 0.537,-0.636 1.497,-0.862 1.8,-1.319 0.341,-2.416 3.591,-2.522 5.52,-1.44 0.323,-0.312 -0.146,-0.362 -0.12,-0.72 0.339,0.099 0.311,-0.169 0.6,-0.12 0.408,-1.952 2.574,-2.146 3.48,-3.6 0.566,-0.034 0.709,-0.491 1.2,-0.601 0.367,0.153 0.6,0.44 1.08,0.48 -0.025,-0.345 0.03,-0.609 0.24,-0.721 0.38,-0.02 0.401,0.319 0.84,0.24 -0.036,-0.279 -0.256,-0.517 0.12,-0.6 0.422,0.504 1.394,0.224 1.92,0.359 -0.036,-0.279 -0.256,-0.517 0.12,-0.6 0.393,0.007 0.458,0.342 0.96,0.24 0.281,-0.039 0.117,-0.523 0.36,-0.601 0.282,0.039 0.451,0.19 0.84,0.12 0.29,-0.288 -0.292,-0.317 -0.12,-0.84 0.699,0.18 0.429,-0.61 0.96,-0.6 0.059,0.377 -0.414,0.316 -0.12,0.6 0.825,-0.401 1.11,-0.612 2.04,-0.84 0.038,-0.479 -0.555,-0.325 -0.6,-0.72 0.232,-0.142 0.608,0.109 0.84,-0.24 -0.001,-0.439 -0.704,-0.176 -0.6,-0.72 0.267,-0.278 0.468,0.04 0.84,0 -0.079,-0.439 0.26,-0.461 0.24,-0.84 -0.322,0.17 -0.939,0.429 -1.08,-0.12 0.79,-0.179 0.28,-0.806 0.12,-1.32 1.084,-0.551 0.78,-1.973 0.96,-3.24 0.037,-0.276 -0.347,-0.133 -0.36,-0.36 0.287,-1.637 0.188,-3.9 0.6,-5.279 -0.338,0.189 -0.509,-0.139 -0.84,0.12 -0.135,0.463 0.215,1.054 0,1.2 -1.034,-0.634 -0.076,-2.465 -0.12,-3.601 -0.179,-0.021 -0.443,0.043 -0.48,-0.12 0.059,-0.379 -0.216,-0.424 -0.12,-0.84 0.299,-0.019 0.372,0.188 0.6,0.24 0,-0.44 0,-0.88 0,-1.32 -0.297,0.018 -0.583,0.022 -0.6,-0.24 0.787,-0.939 -0.172,-2.425 0.24,-3.72 -0.12,-0.16 -0.324,-0.235 -0.36,-0.479 0.043,-0.276 0.525,-0.115 0.48,-0.48 -0.755,-1.359 -1.387,-2.413 -1.56,-3.6 0.311,0.129 0.446,0.434 0.84,0.479 -0.081,-1.224 -0.705,-1.215 -0.6,-2.52 -0.367,-0.087 -0.353,0.207 -0.72,0.12 0.147,-0.548 -0.421,-0.38 -0.48,-0.721 0.41,-0.109 0.813,-0.226 1.2,-0.359 -0.265,-0.016 -0.051,-0.51 -0.12,-0.721 -0.388,0.012 -0.256,0.544 -0.84,0.36 0.563,-0.676 -0.417,-0.836 -0.24,-1.8 -0.893,-0.066 -0.995,-1.014 -0.84,-1.8 -0.217,-0.463 -0.785,-0.575 -0.84,-1.2 0.642,-0.202 0.521,0.359 0.96,0.359 -0.212,-1.159 -2.091,-1.117 -1.56,-2.64 -0.729,0.09 -0.331,-0.948 -0.72,-1.2 0.289,-0.049 0.261,0.22 0.6,0.12 0.416,-2.156 -1.931,-2.104 -1.8,-4.319 0.229,0.051 0.301,0.258 0.6,0.239 -0.225,-1.216 -1.37,-1.51 -1.56,-2.76 0.229,-0.056 0.517,0.37 0.48,-0.12 0.084,-0.685 -0.807,-0.393 -0.96,-0.84 0.107,-0.213 0.487,-0.153 0.36,-0.6 -0.875,-0.52 -0.985,-1.39 -0.84,-2.4 -0.174,-0.065 -0.62,0.141 -0.6,-0.12 -0.302,-2.196 -0.927,-4.007 -1.44,-6.24 -0.047,-0.287 0.546,0.067 0.36,-0.359 -0.552,-0.517 -0.215,-1.287 -0.36,-2.04 0.209,0.009 0.374,-0.027 0.48,-0.12 0.04,-0.823 -0.236,-1.256 -0.36,-2.16 -0.214,-0.146 -0.698,-0.021 -0.84,-0.24 0.195,-0.325 0.155,-0.885 0.24,-1.319 -0.154,-0.207 -0.718,-0.003 -0.72,-0.36 0.233,-0.166 0.368,-0.432 0.72,-0.48 0.113,-1.535 0.734,-2.247 0.36,-3.72 -0.313,0.407 -0.552,0.889 -0.48,1.68 -0.257,0.144 -0.67,0.13 -0.84,0.36 -0.112,0.648 -0.019,1.501 -0.6,1.68 -0.14,-0.726 0.07,-1.167 0.24,-2.279 -0.439,-0.103 -0.643,0.553 -0.84,0 0.014,-0.427 0.444,-0.437 0.36,-0.96 -0.175,-0.066 -0.621,0.14 -0.6,-0.12 0.157,-0.684 0.717,-0.963 0.6,-1.92 -0.379,-0.06 -0.424,0.216 -0.84,0.12 -0.109,0.21 -0.041,0.599 -0.24,0.72 -0.605,-0.271 -0.469,-1.012 -0.12,-1.44 -0.352,-0.178 -0.446,0.136 -0.6,-0.24 0.15,-0.658 -0.336,-1.074 -0.36,-1.68 -0.045,-1.135 0.822,-2.41 0,-3.24 -0.647,0.253 0.073,1.127 -0.6,1.32 -0.326,-0.972 0.818,-2.171 0,-3 0.994,-0.035 0.555,-0.788 0.84,-1.56 -1.548,-0.288 -1.122,1.835 -1.2,2.64 -0.598,-0.03 -0.254,-0.816 -0.36,-1.56 -0.663,0.143 -0.612,-0.429 -0.6,-0.96 -0.377,-0.061 -0.49,0.282 -0.6,-0.12 -0.005,-0.445 0.45,-0.431 0.6,-0.721 -0.186,-0.851 0.052,-1.6 -0.36,-2.04 -0.625,0.321 0.284,1.441 -0.36,1.681 -0.264,-0.136 -0.008,-0.792 -0.36,-0.84 -0.121,0.21 -0.208,0.644 -0.48,0.359 0.027,-0.948 0.252,-1.078 0.12,-2.04 0.162,-0.037 0.229,-0.171 0.48,-0.12 0.026,-0.785 0.094,-1.614 -0.72,-1.56 -0.258,0.787 0.053,1.669 -0.48,2.52 -0.265,-0.015 -0.051,-0.509 -0.12,-0.72 -0.297,0.018 -0.582,0.022 -0.6,-0.24 -0.307,-1.321 0.476,-3.777 -0.84,-4.56 0.207,1.448 0.433,2.866 0,3.84 -0.816,-0.843 0.651,-2.752 -0.72,-3.96 -0.448,0.642 0.299,2.112 -0.36,2.4 -0.559,-0.938 -0.546,-1.82 -0.6,-3.12 -1.729,0.05 -1.851,-1.854 -1.8,-3.84 -0.298,-0.156 -0.498,0.352 -0.6,0 -0.071,-0.729 -0.308,-1.276 -0.72,-1.92 -0.356,0.864 0.166,1.813 0.24,2.64 -0.856,-0.257 -0.123,1.077 -0.84,0.96 -0.284,-0.276 -0.208,-0.912 -0.48,-1.2 0.375,0.056 0.536,-0.104 0.48,-0.479 -0.706,-0.875 -0.782,-1.925 -0.96,-3.12 -0.383,0.097 -0.685,0.275 -0.84,0.6 -0.505,-0.615 -0.368,-1.872 -1.2,-2.16 -0.539,0.456 0.308,0.994 -0.12,1.561 -0.392,-0.088 -0.091,-0.869 -0.6,-0.84 -0.212,1.202 0.869,2.708 0.84,3.72 -0.676,-0.924 -1.236,-1.964 -1.44,-3.36 -1.182,0.726 0.562,2.079 0.72,3 -0.02,0.14 -0.189,0.131 -0.36,0.12 -0.12,0.372 0.639,0.466 0.24,0.72 -1.014,-0.387 -0.886,-1.914 -2.16,-2.04 0.281,1.52 1.283,2.317 1.8,3.601 -0.074,-0.035 -0.462,-0.299 -0.48,0 0.146,0.18 0.566,0.501 0.12,0.6 -0.471,-0.089 -0.323,-0.797 -0.96,-0.72 -0.398,0.648 0.665,0.738 0.6,1.439 -0.816,-0.264 -0.861,-1.299 -1.68,-1.56 0.115,1.405 1.443,2.235 1.44,3.36 -0.395,-0.045 -0.242,-0.639 -0.72,-0.601 -0.132,0.556 -0.665,-0.032 -0.72,0.601 0.846,0.074 1.201,0.639 1.44,1.319 -0.447,-0.072 -0.488,-0.551 -0.96,-0.6 0.012,0.87 1.166,1.231 0.72,2.16 -0.499,-0.221 -0.329,-1.111 -1.08,-1.08 0.307,1.452 1.196,2.324 1.56,3.72 -0.319,0.001 -0.306,0.334 -0.48,0.48 -0.712,-0.368 -0.659,-1.501 -1.8,-1.44 0.164,1.297 1.812,2.32 1.2,3.601 -0.274,-0.29 -0.331,-1.425 -0.96,-0.961 0.178,0.103 0.258,0.303 0.24,0.601 -1.005,0.292 0.461,1.497 0.24,2.04 -0.797,-0.123 -0.594,-1.246 -1.32,-1.44 -0.219,1.563 0.715,3.173 0,4.44 -0.154,-0.525 0.12,-1.48 -0.48,-1.561 0.053,0.877 -0.061,2.771 -0.36,3.24 0.385,0.315 -0.516,1.499 -0.48,1.92 -0.59,-0.13 -0.575,-0.865 -1.08,-1.08 -0.131,0.531 0.203,0.597 0.24,0.96 -0.422,0.321 -0.762,0.062 -0.72,0.721 -0.346,-0.015 -0.208,-0.512 -0.6,-0.48 -0.266,0.174 -0.317,0.562 -0.36,0.96 0.498,0.115 0.605,0.706 1.2,1.2 -0.303,0.284 -0.557,0.602 -1.2,0.24 -0.082,0.485 -0.32,0.661 0,1.2 -0.788,-0.014 -0.061,0.507 -0.12,0.84 -0.724,0.756 -1.22,1.739 -1.68,2.76 -0.212,-0.107 -0.351,-0.29 -0.6,-0.36 0.164,0.267 0.571,1.414 -0.12,1.44 -0.176,-0.264 0.014,-0.895 -0.36,-0.96 -0.228,0.252 0.036,0.996 -0.48,0.96 -0.012,-0.428 -0.056,-0.824 -0.36,-0.96 -0.017,0.343 -0.5,0.22 -0.84,0.24 -0.11,0.554 0.656,1.363 0,1.68 -0.371,-0.229 0.027,-1.228 -0.6,-1.2 0.014,0.826 -0.293,1.566 0.24,2.04 0.236,-0.132 0.637,-0.716 0.72,0 -0.752,0.008 -0.823,0.697 -1.44,0.84 -0.2,-0.2 0.076,-0.876 -0.36,-0.84 -0.812,1.214 -1.224,3.105 -2.04,3.96 -0.447,-0.286 0.116,-0.529 -0.12,-0.84 -0.938,0.262 -0.279,2.121 -1.08,2.52 -0.268,-0.292 -0.264,-0.856 -0.24,-1.439 -0.61,0.492 -0.987,2.237 -0.48,2.76 -0.25,0.263 -0.388,-0.105 -0.6,0.12 0.045,0.372 0.409,0.466 0,0.72 -0.473,-0.047 0.028,-1.068 -0.72,-0.84 -0.625,0.382 0.417,1.284 -0.12,1.92 -0.379,0.06 -0.044,-0.596 -0.48,-0.479 -0.127,0.897 -0.079,0.871 0,1.319 -0.339,0.1 -0.311,-0.169 -0.6,-0.119 -0.096,0.416 0.179,0.461 0.12,0.84 -1.15,0.177 -0.86,2.137 -2.04,1.92 0.312,0.319 -0.107,0.927 -0.36,1.08 -0.438,-0.522 -0.316,0.123 -0.84,0.119 -0.188,-0.57 -0.096,-1.424 -0.6,-1.68 -0.071,0.461 -0.146,1.076 -0.36,1.68 0.542,0.098 1.203,0.078 1.2,0.721 -0.734,0.094 -0.761,-0.52 -1.32,-0.601 -0.29,0.378 0.257,0.721 0.24,1.2 -0.547,-0.05 -0.508,-0.33 -1.08,-0.12 -0.077,0.438 0.572,0.148 0.6,0.48 -0.43,0.05 -0.263,0.697 -0.72,0.72 -0.231,-0.049 -0.095,-0.465 -0.48,-0.359 0.021,0.636 0.078,0.611 0,1.199 -0.339,0.1 -0.311,-0.169 -0.6,-0.12 -0.337,0.503 -0.573,1.106 -1.32,1.2 0,-0.359 0,-0.72 0,-1.08 -0.605,-0.045 -0.21,0.91 -0.72,0.96 -0.18,-0.151 -0.214,-0.636 -0.479,-0.359 -0.012,0.796 0.062,1.353 -0.36,2.04 -0.449,-0.054 -0.62,-0.019 -0.96,-0.36 -0.031,0.551 -0.127,0.58 0,1.08 -0.601,-0.398 -0.066,0.319 -0.36,0.479 -0.312,0.072 -0.432,-0.048 -0.36,-0.359 -0.373,-0.013 -0.343,0.377 -0.84,0.24 0.243,0.851 -0.331,1.261 -0.96,1.56 -0.138,-0.142 -0.136,-0.424 -0.12,-0.72 -0.716,0.164 -0.744,1.017 -0.84,1.8 -0.793,-0.273 -0.416,0.624 -1.08,0.479 0.108,-0.351 0.108,-0.368 0,-0.72 0.213,-0.027 0.601,0.121 0.48,-0.24 -0.612,-0.004 -0.588,-0.198 -0.96,-0.6 -0.396,0.43 -0.62,1.448 -1.32,1.2 0.611,2.893 -2.081,3.193 -3.12,4.2 -0.28,-0.44 -0.366,-1.074 -0.48,-1.681 -1.089,0.338 0.578,2.073 -0.48,2.4 -0.44,-0.256 0.137,-1.677 -0.6,-1.92 -0.148,0.947 -0.4,1.358 -0.24,2.399 -0.412,-0.05 -0.443,0.16 -0.6,0.601 -0.571,-0.153 -0.836,0.723 -1.2,0.84 -0.018,-0.37 -0.298,-0.801 -0.36,-1.44 -0.679,0.081 -0.285,1.235 -0.6,1.681 -0.289,0.049 -0.261,-0.22 -0.6,-0.12 -0.005,0.436 0.067,0.947 -0.24,1.08 -0.353,-0.048 -0.104,-0.696 -0.72,-0.48 -0.398,0.486 0.323,0.654 0.48,0.96 -0.388,-0.068 -0.604,0.037 -0.72,0.24 -0.166,-0.154 -0.119,-0.521 -0.12,-0.84 -0.491,0.197 -0.832,0.481 -1.32,0.12 0.145,0.445 0.123,1.385 -0.24,1.68 -0.288,0.048 0.067,-0.547 -0.36,-0.36 -0.265,0.264 0.119,0.49 0,0.961 -0.37,0.089 -0.23,-0.33 -0.6,-0.24 -0.29,0.189 -0.318,0.642 -0.48,0.96 -0.534,-0.266 0.153,-1.753 -0.6,-1.8 -0.48,0.199 -0.136,1.224 -0.24,1.8 -0.611,-0.091 -0.372,0.668 -0.84,0.72 -0.279,-0.48 -0.068,-1.452 -0.84,-1.439 -10e-4,0.158 -0.21,0.109 -0.24,0.239 0.259,0.874 0.059,2.385 -0.84,3 -0.346,-0.054 -0.375,-0.425 -0.84,-0.359 0.086,0.646 -0.123,0.997 -0.36,1.319 -0.415,-0.098 -0.507,0.225 -0.72,0 0.003,-0.483 -0.035,-0.926 -0.36,-1.08 -0.174,0.187 -0.16,0.561 -0.36,0.721 -0.287,0.047 0.067,-0.547 -0.36,-0.36 -0.209,0.11 -0.265,0.375 -0.24,0.72 0.18,0.021 0.443,-0.043 0.48,0.12 0.011,0.571 -0.047,1.073 -0.6,1.08 0.218,-0.409 0.03,-0.623 -0.48,-0.6 0.073,0.264 0.301,0.894 -0.12,0.96 -0.313,-0.388 0.193,-0.891 -0.12,-1.32 -0.502,0.498 -0.971,1.029 -0.96,2.04 -0.86,0.282 -1.43,0.979 -2.16,0.6 -0.185,0.336 -0.085,0.955 -0.72,0.841 -0.024,-0.376 0.081,-0.881 -0.12,-1.08 -1.361,-0.023 -0.01,1.184 -0.72,1.56 -0.454,0.174 -0.23,-0.329 -0.6,-0.24 -0.36,0.16 -0.29,0.751 -0.72,0.841 -0.457,0.176 -0.024,-0.537 -0.48,-0.36 -0.454,0.42 -0.797,1.198 -1.68,0.84 -0.234,0.211 -0.48,1.033 -0.96,0.6 0.012,-0.388 0.544,-0.256 0.36,-0.84 -1.326,0.098 -1.6,2.313 -3,1.561 -0.604,0.772 -2.054,1.107 -2.76,0.96 -0.166,0.073 -0.018,0.462 -0.24,0.479 -1.298,0.245 -2.45,1.2 -3.84,0.96 -1.284,0.926 -4.259,1.485 -6,1.92 -2.23,0.558 -4.718,1.939 -6.36,1.681 -0.818,-0.129 -2.015,-1.412 -2.04,-2.28 -0.034,-1.178 1.207,-2.016 1.8,-2.88 -0.178,-0.103 -0.258,-0.302 -0.24,-0.601 -3.66,0.014 -8.479,-0.703 -12.24,0.24 -2.079,0.521 -3.822,1.42 -5.88,1.561 -1.181,-0.66 -2.014,-1.666 -2.76,-2.761 -1.883,0.177 -3.825,0.506 -3.72,-1.439 0.078,-1.449 1.409,-2.263 2.52,-2.64 -0.456,-0.256 -0.665,0.13 -1.2,0.119 -0.109,-1.597 1.412,-2.582 2.76,-3.119 1.739,-1.741 4.652,-2.309 6.48,-3.961 1.606,-0.523 3.182,0.097 4.08,0.961 1.373,-2.129 4.779,-0.576 6.24,0.359 0,0.16 0,0.32 0,0.48 0.827,-0.107 1.246,0.193 1.8,0.359 0.113,-0.487 -0.696,-0.369 -0.36,-0.72 0.958,0.121 1.661,0.499 2.4,0.84 0.021,-0.18 -0.043,-0.442 0.12,-0.479 0.227,0.133 0.42,0.299 0.72,0.359 0.06,-0.726 0.543,0.035 0.96,0 0.115,-0.224 -0.359,-0.4 0,-0.479 1.577,0.548 3.05,0.526 4.68,1.08 -0.247,-0.633 -1.479,-0.282 -1.68,-0.96 0.602,-0.15 1.481,0.213 2.16,0.359 -0.034,-0.313 0.044,-0.516 0.36,-0.479 0.145,0.175 0.524,0.115 0.36,0.6 0.701,-0.198 1.494,0.44 1.8,-0.12 -0.424,-0.176 -1.123,-0.077 -1.44,-0.359 0.374,-0.603 1.075,0.191 1.8,0 -0.024,-0.535 -0.875,-0.245 -0.96,-0.721 1.893,0.488 2.919,-1.204 5.16,-1.08 0.167,-0.073 0.018,-0.462 0.24,-0.479 2.046,0.046 2.307,-1.692 4.08,-1.92 0.044,-0.517 0.471,-0.649 0.84,-0.84 -0.151,-0.05 -0.246,-0.155 -0.24,-0.36 1.382,-0.218 1.523,-1.678 2.88,-1.92 0.167,-0.193 0.102,-0.619 0.36,-0.72 0.346,-0.22 0.375,-0.195 0.84,-0.12 0.025,-1.094 1.292,-1.179 1.32,-1.92 0.529,-0.191 1.001,-0.439 1.56,-0.601 0.056,-0.424 0.213,-0.746 0.48,-0.96 0.498,-0.137 0.468,0.253 0.84,0.24 0.436,-0.564 0.768,-1.232 1.32,-1.68 -0.811,-0.137 0.409,-0.555 -0.24,-0.96 1.303,-0.538 2.12,-1.56 3.12,-2.4 -0.155,-0.434 -0.497,0.065 -0.6,-0.36 0.632,-0.488 1.003,-1.236 1.8,-1.56 -0.058,-0.659 0.318,-1.45 1.08,-1.2 0.077,-0.841 0.704,-0.602 1.32,-0.72 0.09,-0.41 -0.487,-0.152 -0.36,-0.601 0.222,-0.406 0.849,-0.676 0.48,-1.319 0.269,0.271 0.601,-0.008 0.84,-0.12 0.083,-0.303 0.113,-0.536 0,-0.96 0.139,-0.101 0.322,-0.158 0.6,-0.12 0.018,-0.354 -0.349,-0.847 0.12,-0.96 0.188,0.052 0.103,0.378 0.48,0.24 0.217,-0.433 -0.021,-0.354 -0.12,-0.72 0.16,0 0.32,0 0.48,0 -0.405,-0.698 1.1,-0.912 0.84,-1.44 -0.261,0.146 -0.77,0.662 -0.96,0.479 0.096,-0.744 0.489,-1.19 1.2,-1.319 -0.646,-0.317 0.42,-0.478 0.6,-0.72 0.416,-0.562 0.405,-1.83 0.12,-2.041 0.45,-0.51 0.974,-0.945 1.32,-1.56 -0.156,-0.4 0.49,-1.419 1.08,-1.8 -0.363,-0.146 0.303,-1.164 0.84,-0.84 0.008,-0.352 0.043,-0.677 0.48,-0.601 -0.246,-0.439 -0.868,-1.342 0.12,-1.439 0.071,0.383 -0.226,0.371 0,0.6 1.58,-1.34 1.25,-4.59 3.84,-4.92 -0.427,0.027 -0.627,-0.173 -0.6,-0.6 0.616,-0.097 0.5,0.539 1.2,0.359 -0.208,-0.469 -0.938,-0.368 -0.6,-1.08 0.416,-0.096 0.461,0.179 0.84,0.12 0.027,-0.093 0.003,-0.236 0.12,-0.24 0.357,-0.345 -0.3,-0.208 -0.24,-0.6 0.109,-0.211 0.269,-0.371 0.48,-0.479 0.098,0.302 0.632,0.167 0.84,0.359 0.179,-0.141 0.339,-0.301 0.48,-0.479 0.354,0.345 0.985,0.079 1.32,-0.24 -0.343,-0.828 -1.766,0.523 -2.16,-0.48 0.565,-0.007 0.547,-0.782 1.2,-0.359 -0.425,-0.454 0.16,-1.306 0.84,-0.96 0.088,-0.327 -0.238,-0.242 -0.24,-0.48 0.839,-0.546 1.413,-0.04 2.52,-0.359 -0.029,-0.491 -0.408,-0.633 -0.48,-1.08 0.16,-0.121 0.446,-0.114 0.48,-0.36 -0.262,0.021 -0.382,-0.098 -0.36,-0.36 0.139,-0.101 0.322,-0.158 0.6,-0.12 -0.065,-0.332 -0.389,-0.339 0,-0.6 0.146,0.591 0.607,1.114 0.96,1.8 0.868,-0.132 1.471,-0.528 2.16,-0.84 -0.477,-0.207 -1.874,0.015 -2.4,-0.479 0.258,-0.582 0.787,-0.894 1.68,-0.84 0.333,-0.18 -0.208,-0.491 0.12,-0.601 0.861,-0.14 1.682,-0.318 2.04,-0.96 -0.638,-0.43 -0.77,0.122 -1.56,0.12 -0.017,-0.573 -0.675,-1.147 0.24,-0.72 -0.217,-0.765 0.603,-0.624 0.24,-1.2 0.35,-0.091 0.595,-0.285 0.84,-0.48 -0.084,-0.369 -0.084,-0.23 0,-0.6 -0.777,-0.276 0.209,-0.902 -0.48,-1.2 0.083,-0.237 0.32,-0.32 0.6,-0.359 0.085,-0.59 -0.55,-0.457 -0.24,-0.961 0.381,0.181 0.977,0.181 0.96,-0.359 -0.466,0.025 -0.752,-0.127 -0.84,-0.48 0.224,-0.234 0.439,-0.037 0.72,0 -0.376,-0.846 1.046,-1.674 1.2,-2.76 -0.754,0.285 -1.1,0.98 -1.44,1.68 -0.686,-0.417 0.024,-1.329 -0.48,-1.68 0.851,-1.469 1.758,-2.882 2.76,-4.2 -0.688,0.014 -0.334,-0.234 -0.24,-0.6 -0.544,0.225 -0.164,-0.477 -0.6,-0.36 -0.41,0.27 -0.499,0.861 -1.08,0.96 -0.283,-0.037 -0.223,-0.417 -0.6,-0.359 -0.164,0.237 -0.404,0.76 -0.72,0.479 0.391,-0.769 1.088,-1.231 1.44,-2.04 -0.753,-0.189 -1.08,0.676 -1.68,0.24 0.229,-0.571 0.922,-0.679 1.32,-1.08 0.021,0.18 -0.043,0.442 0.12,0.479 0.403,-0.156 0.717,-0.402 1.32,-0.359 -0.35,-0.551 0.299,-0.497 0.24,-1.08 -0.599,0.004 -1.006,0.83 -1.32,0.72 0.134,-0.186 0.39,-0.25 0.36,-0.6 -0.473,-0.067 -0.929,0.503 -1.32,0.12 0.251,-0.229 0.573,-0.388 0.96,-0.48 0.458,-1.453 1.892,-3.513 2.04,-5.279 -0.981,0.378 -0.709,2.011 -1.68,2.399 -0.049,-0.289 0.219,-0.261 0.12,-0.6 -0.676,0.166 -1.152,1.165 -1.56,1.2 0.677,-0.992 0.34,-1.576 1.2,-1.921 0.292,-1.72 2.501,-3.169 2.76,-4.92 -0.386,0.621 -1.277,0.735 -1.8,0.601 -0.059,0.847 -0.562,1.475 -1.44,1.8 0.196,-0.722 0.601,-0.704 0.36,-1.68 0.605,-0.053 1.679,-1.494 1.2,-2.28 -0.388,0.132 -0.375,0.665 -0.84,0.72 -0.293,-0.507 0.26,-0.633 0.48,-0.96 -0.001,-0.442 -1.005,-0.737 -0.36,-1.08 0.282,0.038 0.071,0.569 0.48,0.48 0.287,-0.754 0.608,-1.472 0.96,-2.16 -0.757,0.202 -0.845,1.074 -1.68,1.2 -0.178,-0.142 -0.536,-0.104 -0.479,-0.48 0.332,-0.056 1.136,0.037 1.2,-0.6 -0.639,0.295 -0.639,-0.184 -0.36,-0.601 -0.502,-0.102 -0.475,0.325 -0.72,0.48 -0.157,-1.21 0.349,-2.762 1.08,-3.48 -1.073,-0.504 0.493,-1.842 0,-2.28 -0.492,0.031 -0.487,1.591 -1.32,1.68 0.132,-0.842 0.75,-2.2 1.56,-2.76 -0.009,-0.391 -0.153,-0.647 -0.479,-0.72 -0.484,0.036 -0.212,0.828 -0.72,0.84 -0.126,-1.166 0.405,-1.675 0.48,-2.64 -0.712,0.098 -0.203,-0.76 -0.24,-1.08 -0.179,-0.021 -0.442,0.042 -0.479,-0.12 0.201,-1.362 -0.556,-1.764 -1.2,-2.28 -0.053,0.227 0.163,0.723 -0.24,0.6 0.087,-0.367 -0.207,-0.353 -0.12,-0.72 -0.817,0.177 -0.792,-0.487 -1.439,-0.48 0.013,0.533 -0.318,0.722 -0.6,0.96 -0.366,-0.434 -1.031,-0.57 -1.2,-1.2 -0.273,0.058 -0.613,0.238 -0.84,0 0.14,0.525 -0.033,0.617 0.12,1.08 -0.85,0.261 -1.665,-0.366 -2.16,-0.84 0.022,-0.178 0.29,-0.11 0.48,-0.12 -0.059,-0.661 -1.004,-0.436 -1.08,-1.08 0.022,-0.178 0.29,-0.11 0.48,-0.12 -0.266,-0.654 -1.236,-0.604 -1.92,-0.84 0.084,0.636 0.789,0.651 0.84,1.32 -0.934,-0.198 -1.546,-1.958 -2.52,-1.32 0.729,0.911 1.614,1.666 2.64,2.28 -1.895,0.328 -2.087,-2.067 -3.6,-2.52 0.197,1.043 1.119,1.361 1.44,2.28 -0.503,0.31 -0.371,-0.325 -0.96,-0.24 0.098,0.502 0.482,0.718 0.84,0.96 -1.271,-0.036 -1.742,-1.447 -3,-1.68 -0.027,0.749 1.06,1.016 0.72,1.68 -0.979,-0.662 -1.539,-1.742 -2.4,-2.521 -0.201,0.901 0.665,1.721 0.96,2.521 -1.185,0.401 -1.241,-0.661 -2.04,-0.96 -0.049,0.29 0.219,0.261 0.12,0.6 -1.673,1.1 -1.819,-1.951 -3,-2.76 -0.028,1.229 1.076,1.962 1.08,2.76 -0.431,-0.169 -0.797,-0.403 -0.84,-0.96 -0.48,0.396 -0.78,0.772 -1.44,0.6 0.504,-0.557 -0.284,-1.434 -0.84,-1.68 -0.074,0.467 0.514,1.024 0,1.2 -0.716,-0.484 -0.755,-1.645 -1.32,-2.28 -0.436,0.109 0.25,0.678 -0.12,0.72 -0.518,0.157 -0.149,-0.571 -0.6,-0.48 -0.267,0.389 -0.123,0.628 -0.36,0.96 -0.109,-0.211 -0.442,-0.198 -0.48,-0.48 0.738,-0.769 0.058,-1.561 0.36,-2.4 -0.438,0.006 -1.22,0.522 -1.44,0 0.023,-0.577 0.951,-0.249 1.08,-0.72 -0.686,-0.449 -1.941,0.669 -2.52,-0.36 -3.966,2.449 -12.488,2.279 -14.16,-2.16 0,-0.24 0,-0.48 0,-0.72 -2.944,-0.71 -4.144,-4.418 -3.48,-7.32 -0.322,-0.311 -0.371,-0.711 -0.24,-1.2 -0.547,0.133 -0.732,0.628 -1.08,0.96 -0.237,-0.203 -0.353,-0.527 -0.72,-0.6 -0.289,0.111 0.073,0.873 -0.48,0.72 -0.542,-1.106 -0.101,-2.732 -1.08,-3 -0.028,-0.958 0.474,-1.652 0.84,-2.52 -0.55,-0.141 -0.548,-0.501 -1.08,-0.12 -0.14,-1.339 0.614,-1.786 1.2,-2.4 -1.133,-0.96 -0.17,-2.515 0,-3.36 -0.563,-0.204 -0.156,0.564 -0.72,0.36 -0.093,-0.646 0.602,-1.15 -0.12,-1.44 -0.872,1.047 -1.709,2.13 -2.04,3.72 -0.183,-2.062 0.33,-3.43 1.44,-4.2 0.148,-0.388 -0.388,-0.091 -0.24,-0.479 0.278,-0.282 0.393,-0.727 0.96,-0.72 0.027,0.227 -0.135,0.265 -0.12,0.48 0.465,-0.294 1.202,-0.318 1.8,-0.48 -0.226,-0.214 -0.555,-0.325 -0.72,-0.6 0.297,-0.936 -0.378,-1.401 -0.36,-2.16 0.033,-1.392 1.664,-2.33 1.2,-4.32 0.293,-0.067 0.256,-0.464 0.72,-0.36 0,0.16 0,0.32 0,0.48 0.644,-0.104 0.528,-1.173 1.2,-0.6 0.039,-1.376 1.621,-2.251 0.84,-3.36 -1.431,-0.353 -2.429,0.284 -3.72,-0.24 -0.462,0.183 -1.479,0.64 -1.56,-0.12 0.852,-0.269 2.012,-0.229 2.64,-0.72 -0.848,-0.409 -2.787,-0.541 -3.48,-0.36 0,-0.28 0,-0.56 0,-0.84 0.462,-0.298 1.511,-0.009 1.68,-0.6 -0.521,0.042 -0.87,-0.09 -0.96,-0.479 0.856,-0.14 1.255,1.058 1.92,0.36 -0.267,-0.373 -0.792,-0.488 -1.32,-0.6 0.158,-0.431 -0.008,-0.439 0.12,-0.84 -0.42,-0.02 -0.768,0.032 -0.96,0.24 0.146,-0.037 0.414,0.347 0.12,0.36 -0.672,-0.569 -2.116,0.135 -2.64,-0.72 1.082,0.001 2.181,0.021 2.76,-0.48 -2.363,-0.706 -6.274,-0.129 -8.4,-0.72 1.689,-0.637 4.811,-0.131 7.32,0 -1.785,-1.658 -4.773,-0.246 -7.2,-1.08 0.442,-0.277 1.398,-0.042 2.04,-0.12 -0.087,-0.713 -1.47,-0.13 -1.56,-0.84 2.668,0.314 5.183,1.289 7.8,0.96 -0.167,-0.712 -1.48,-0.28 -2.04,-0.6 0.203,-0.378 0.558,-0.149 0.96,-0.12 -1.158,-1.428 -4.754,-0.555 -6.36,-1.2 0.97,-0.351 2.753,0.113 3.72,-0.24 -1.021,-0.699 -2.737,-0.704 -3.48,-1.68 1.993,0.191 3.519,1.912 5.28,1.56 -1.026,-0.454 -1.847,-1.113 -2.88,-1.56 -0.047,-0.288 0.546,0.066 0.36,-0.36 -0.55,-0.29 -1.366,-0.314 -1.8,-0.72 2.031,-0.419 3.951,1.32 5.76,1.92 -0.435,-1.005 -1.646,-1.233 -2.16,-2.16 0.938,0.023 1.255,1.303 2.04,1.08 -0.123,-0.117 -0.243,-0.237 -0.36,-0.36 0.289,-0.049 0.261,0.219 0.6,0.12 -0.608,-1.348 -2.936,-2.004 -2.28,-3.24 0.99,0.61 1.574,1.625 2.88,1.92 -1.107,-1.893 -2.992,-3.008 -4.2,-4.8 2.437,1.283 3.397,4.043 5.88,5.28 0.356,0.643 0.823,1.177 1.56,1.44 0.441,-1.063 -1.026,-1.197 -1.44,-1.8 0.178,-0.022 0.11,-0.29 0.12,-0.48 -1.174,-1.306 -3.14,-2.459 -3.6,-4.08 0.979,1.021 1.799,2.201 3,3 -0.559,-1.361 -1.456,-2.383 -1.92,-3.84 1.344,0.856 1.391,3.009 2.76,3.84 -0.046,-0.636 -0.763,-1.233 -0.479,-1.8 0.457,0.383 0.392,1.288 1.2,1.32 -0.526,0.731 0.474,1.676 0.96,2.16 -0.237,-1.122 -0.319,-2.443 -1.08,-3.72 0.586,-0.066 0.75,0.29 0.84,0.72 0.665,0.044 0.697,0.006 1.2,0.12 -0.277,-2.388 -1.282,-3.358 -1.56,-5.64 0.346,0.015 0.208,0.512 0.6,0.48 0.412,-0.522 -0.669,-1.521 -0.12,-1.8 0.241,0.46 0.531,0.88 0.84,0.96 -0.034,0.252 -0.321,-0.174 -0.48,0.12 0.116,0.524 0.277,1.003 0.36,1.56 0.684,-0.104 0.173,-0.679 0.72,-0.84 0.112,0.672 0.137,1.344 1.08,1.68 0.083,-1.042 -0.117,-1.803 -0.12,-2.76 -0.239,-0.292 -0.513,0.202 -0.6,-0.24 0.296,-0.184 0.114,-0.846 0.72,-0.72 0.508,1.488 0.245,2.992 0.36,4.44 0.609,-0.379 0.246,0.742 0.96,0.6 -0.061,-0.802 -0.286,-2.209 0,-3.24 0.526,0.396 -0.24,2.581 1.32,2.28 -0.209,-1.39 -0.458,-2.742 -1.32,-3.48 -0.035,0.209 0.383,0.644 -0.12,0.6 -0.19,-0.33 -0.208,-0.833 -0.36,-1.2 0.297,-0.062 0.427,-0.292 0.6,-0.48 1.004,1.516 1.273,3.767 2.4,5.16 0.137,-1.387 -0.969,-3.145 -0.12,-4.08 0.775,0.345 0.412,1.828 1.2,2.16 0.161,-0.527 -0.359,-0.992 0,-1.32 0.389,-0.148 0.092,0.389 0.48,0.24 -0.113,-1.238 0.047,-2.896 0.96,-3.72 0.34,0.499 0.786,0.894 1.44,1.08 0.154,-0.757 -0.66,-1.176 -0.36,-1.68 0.648,0.118 0.329,0.464 0.479,1.08 0.417,-0.096 0.461,0.179 0.84,0.12 -0.059,-0.661 -0.491,-0.949 -0.6,-1.56 0.154,-0.206 0.248,-0.472 0.6,-0.48 0.226,1.054 1.182,1.378 1.92,1.92 0.923,-0.775 1.87,-2.104 3.36,-1.92 1.738,-1.222 4.033,-1.887 5.88,-3 0.37,-0.089 0.231,0.33 0.6,0.24 1.484,-1.043 2.99,-0.512 4.68,-1.08 0.005,0.165 -0.057,0.264 -0.12,0.36 0.498,0.138 0.468,-0.252 0.84,-0.24 0.339,0.206 -0.044,0.472 0.36,0.48 2.166,-0.244 3.588,-0.158 5.16,-0.36 -0.036,0.444 -0.906,0.054 -0.84,0.6 0.924,-0.298 1.521,0.389 2.4,0.24 0.014,0.123 -0.518,0.243 -0.12,0.36 0.519,-0.164 1.584,-0.412 2.16,-0.12 -0.011,0.189 -0.306,0.094 -0.24,0.36 1.175,-0.119 3.549,-0.356 3.48,0.72 1.176,0.083 2.38,0.577 2.52,1.32 1.229,0.062 1.908,1.003 2.88,0.96 -0.013,0.933 1.142,0.698 1.32,1.44 -0.179,0.021 -0.443,-0.043 -0.48,0.12 0.457,0.303 1.116,0.404 1.44,0.84 -0.011,0.189 -0.306,0.094 -0.24,0.36 1.782,0.699 2.988,1.972 3.72,3.72 -0.666,0.234 -0.729,-0.531 -1.08,-0.24 -0.206,0.624 0.64,0.918 1.32,0.72 0.476,0.235 0.891,1.067 1.56,0.72 0.397,-0.346 -0.487,-0.284 -0.12,-0.6 0.282,0.039 0.451,0.19 0.84,0.12 0.319,-0.202 0.373,-1.247 0,-1.44 -0.172,0.191 0.088,0.993 -0.6,0.96 -0.078,-0.545 0.437,-1.135 0,-1.32 0.983,-0.67 1.065,0.937 2.04,0.48 -0.128,-0.224 -0.644,-0.673 -0.12,-0.84 0.444,0.036 0.054,0.906 0.6,0.84 0.3,-0.1 -0.138,-0.938 0.36,-0.84 0.271,0.09 0.047,0.673 0.12,0.96 0.68,0 0.086,-1.274 0.6,-1.44 0.217,0.223 0.021,0.86 0.36,0.96 0.23,-0.37 0.227,-0.973 0.6,-1.2 0.036,0.106 0.241,0.61 0.36,0.24 -0.259,-0.152 0.43,-0.36 0.6,-0.48 0.159,0.121 0.446,0.114 0.48,0.36 -0.092,0.452 0.146,0.573 0.12,0.96 1.096,0.216 0.211,-1.549 0.84,-1.8 0.36,0.6 0.289,1.652 0.24,2.4 0.475,-0.155 0.245,0.395 0.72,0.24 -0.008,-1.268 0.153,-1.833 0,-2.88 0.73,0.257 0.926,-0.299 1.56,0.12 -0.162,-0.562 0.563,-0.236 0.6,-0.6 0.22,-0.006 0.406,0.615 0.6,0.24 1.046,-0.969 2.041,0.722 1.44,2.28 0.414,-0.216 0.558,-0.072 0.479,0.48 0.804,-0.186 0.297,-1.806 0.48,-2.28 0.568,0.191 0.356,1.164 0.479,1.8 0.412,-0.116 0.775,-0.056 1.08,0 -10e-4,0.319 0.045,0.685 -0.12,0.84 0.495,-0.312 0.55,-0.155 0.96,0.12 0.36,-0.28 -0.231,-1.511 0.48,-1.44 0.227,0.78 -0.417,1.857 0.12,2.16 0.356,-0.41 -0.048,-0.841 0.479,-1.08 0.405,0.203 -0.363,0.835 0.24,0.84 0.744,-0.983 1.5,-2.571 2.52,-2.88 -0.719,1.121 -1.774,1.906 -2.28,3.24 0.598,-0.209 1.499,-0.824 1.2,-1.2 1.679,0.158 2.151,-1.528 3.24,-1.56 -0.681,0.919 -1.808,1.393 -2.4,2.4 0.427,-0.038 0.627,-0.232 0.6,0.36 0.809,-0.271 1.401,-0.759 2.16,-1.08 0.244,0.264 0.884,0.146 1.32,0.48 0.634,-0.191 1.018,-1.051 1.8,-0.72 0.259,-0.243 -0.319,-0.958 0.48,-0.84 -0.263,0.353 -0.181,0.927 0,1.08 0.453,0.406 0.557,-0.558 0.96,-0.6 0.323,0.312 -0.147,0.362 -0.12,0.72 0.835,-0.365 1.506,-0.309 2.16,-0.96 0.099,0.339 -0.169,0.311 -0.12,0.6 1.043,-0.277 1.195,-1.445 2.16,-1.8 0.068,0.708 -0.563,0.717 -0.6,1.32 0.077,0.436 0.561,-0.278 0.6,0.12 -0.007,0.283 -0.678,0.509 -0.36,0.72 1.485,-0.28 2.106,-2.714 3.24,-2.4 -0.207,0.553 -0.815,0.705 -1.08,1.2 0.875,0.796 1.095,-1.018 1.8,-0.72 -0.252,0.471 -1.004,0.799 -0.72,1.44 0.472,-0.048 0.512,-0.527 0.96,-0.6 0.014,0.146 0.036,0.284 0.24,0.24 0.586,-0.375 0.858,-1.062 1.561,-1.32 0.135,0.41 0.465,-0.038 0.6,0.24 0.081,0.521 -0.604,0.276 -0.48,0.84 0.842,0.095 1.083,-0.958 1.8,-0.6 0.094,0.494 -0.575,0.225 -0.48,0.72 0.543,-0.017 0.628,-0.492 1.2,-0.48 0.022,0.583 -0.7,0.419 -0.72,0.96 0.927,0.042 1.63,-1.267 2.28,-0.72 -0.51,0.25 -1.103,0.417 -1.32,0.96 0.632,-0.128 0.943,-0.577 1.68,-0.6 -0.001,0.238 -0.327,0.152 -0.24,0.48 0.893,0.154 1.512,-1.046 2.04,-0.48 -0.283,0.478 -1.162,0.359 -1.32,0.96 0.94,-0.332 1.561,-0.348 2.4,-0.12 -0.215,0.225 -0.736,0.144 -0.84,0.48 0.467,0.061 0.982,-0.45 1.2,-0.24 0.014,0.342 -0.876,0.394 -0.48,0.72 0.951,-0.161 1.888,-1.508 2.76,-0.96 -0.229,0.051 -0.516,0.043 -0.48,0.36 0.79,0.007 -0.01,0.318 0,0.6 0.993,-0.119 2.08,-1.317 3.12,-0.6 -0.707,0.213 -1.453,0.386 -2.16,0.6 0.788,1.343 2.687,-0.208 3.6,-0.12 -0.163,0.437 -0.851,0.35 -0.96,0.84 1.259,-0.061 1.884,-0.756 3,-0.96 -0.355,0.965 -1.957,0.683 -2.28,1.68 0.794,0.112 1.214,-0.782 1.8,-0.48 -0.049,0.231 -0.465,0.095 -0.36,0.48 1.005,-0.061 2.093,-0.791 3.12,-1.2 1.117,0.505 2.339,-0.564 3.48,-0.36 -0.775,0.345 -1.344,0.897 -1.68,1.68 1.097,-0.104 1.808,-1.23 2.52,-1.32 -0.124,0.716 -0.979,0.7 -1.2,1.32 1.661,-0.54 3.254,-1.786 5.16,-1.68 -0.885,0.595 -2.063,0.896 -2.64,1.8 2.162,-0.088 3.481,-2.265 5.28,-1.92 -0.729,0.351 -1.635,0.525 -2.04,1.2 0.559,-0.197 0.531,0.071 0.96,0.24 1.021,-0.25 1.729,-1.349 2.88,-1.08 0.375,-0.427 0.963,-1.274 1.56,-1.08 -0.407,0.633 -1.112,0.968 -1.44,1.68 1.635,-0.885 3.881,-1.159 5.4,-2.16 0.447,0.611 1.559,0.113 2.04,0.36 -0.038,0.282 -0.569,0.071 -0.48,0.48 0.975,0.052 1.907,-1.076 2.641,-0.48 -0.623,0.297 -1.339,0.501 -1.681,1.08 1.018,0.115 2.835,-1.216 3.721,-0.84 -0.909,0.651 -2.391,0.729 -3.36,1.32 3.114,0.238 3.86,-1.661 6.84,-0.96 0.167,0.074 0.019,0.462 0.24,0.48 0.546,-0.46 0.883,0.312 1.44,0.24 0.208,-0.398 0.092,-1.204 0.84,-0.84 -0.276,0.252 -0.702,0.426 -0.24,0.84 0.434,-0.406 1.25,-0.43 1.8,-0.72 0.154,0.158 0.154,0.442 0,0.6 0.546,0.062 0.978,-0.617 1.44,-0.24 -0.376,0.544 -1.419,0.422 -1.8,0.96 1.638,-0.104 2.812,-0.906 4.439,-0.36 0.187,-0.134 0.25,-0.39 0.601,-0.36 0.032,0.607 1.173,0.106 1.319,0.6 -0.93,0.19 -1.926,0.313 -2.399,0.96 1.131,0.082 1.69,-0.712 2.64,-0.6 -0.405,0.555 -1.341,0.58 -1.8,1.08 1.049,0.322 1.785,-1.021 2.279,-0.12 0.461,-0.259 0.225,-1.216 0.961,-1.2 0.294,0.16 -0.217,0.362 0.119,0.48 0.195,-0.079 1.01,-0.513 0.841,0.12 0.466,-0.013 0.784,-0.61 1.079,-0.12 -0.438,0.401 -1.198,0.481 -1.68,0.84 0.763,0.414 1.565,-0.823 2.28,-0.12 0.29,-0.275 1.129,-0.99 1.56,-0.36 -0.326,0.074 -0.562,0.238 -0.72,0.48 0.703,0.021 1.498,-0.498 2.04,-0.24 -0.275,0.485 -1.177,0.343 -1.439,0.84 1.04,0.039 2.039,-0.599 2.879,-0.36 -0.224,0.496 -1.182,0.258 -1.319,0.84 1.381,0.068 2.47,-0.697 3.96,-0.36 -0.432,0.329 -1.448,0.072 -1.68,0.6 1.235,-0.191 2.556,-0.205 3.359,-0.36 -0.113,0.687 -1.268,0.332 -1.56,0.84 0.834,0.038 2.737,-0.317 1.56,0.36 0.601,0 1.2,0 1.801,0 0.209,0.245 -0.09,0.235 0.119,0.48 0.765,0.082 1.52,-0.478 2.16,-0.12 0.01,0.45 -0.85,0.03 -0.84,0.48 1.733,0.525 2.873,-0.779 4.32,-0.24 -0.595,0.206 -1.394,0.207 -1.681,0.72 0.608,0.008 0.994,-0.207 1.681,-0.12 0.22,0.14 -0.063,0.783 0.479,0.6 -0.014,-0.657 0.965,-0.951 1.561,-0.6 -0.173,0.308 -0.822,0.138 -0.841,0.6 0.878,0.348 2.158,-0.492 2.761,0 -0.033,0.247 -0.447,0.113 -0.48,0.36 0.627,0.346 1.608,-0.373 2.04,0.12 -0.268,0.292 -1.109,0.011 -1.2,0.48 1.076,0.07 2.754,-0.75 3.36,0 -0.313,-0.034 -0.516,0.044 -0.48,0.36 0.605,0.084 1.229,-0.535 1.92,-0.24 -0.519,0.601 -1.747,0.492 -2.279,1.08 1.406,0.046 2.558,-0.801 3.72,-0.6 -0.104,0.536 -1.112,0.168 -1.2,0.72 0.991,0.029 1.865,-0.693 2.641,-0.48 0.157,0.518 -0.571,0.149 -0.48,0.6 0.574,0.634 1.43,-0.044 1.92,-0.24 -0.004,0.285 -0.614,0.572 -0.24,0.84 0.371,-0.036 0.954,-0.478 1.2,-0.24 -0.097,0.423 -0.732,0.308 -0.72,0.84 0.869,0.067 1.63,-0.608 2.28,-0.36 -0.096,0.265 -0.564,0.156 -0.601,0.479 0.651,0.092 0.931,-0.19 1.561,-0.12 0.026,0.227 -0.136,0.265 -0.12,0.48 0.614,0.094 0.872,-0.168 1.44,-0.12 0.209,0.245 -0.09,0.235 0.119,0.48 0.355,0.018 0.848,-0.349 0.96,0.12 0.06,0.379 -0.595,0.044 -0.479,0.48 0.511,0.037 1.53,-0.67 1.68,0.12 -0.457,0.062 -0.775,0.265 -1.08,0.48 0.68,0.368 1.734,-0.481 2.4,-0.12 -0.305,0.415 -1.094,0.347 -1.32,0.84 1.01,0.235 1.775,-0.869 2.4,-0.24 -0.336,0.304 -1.082,0.198 -1.2,0.72 1.167,0.228 2.144,-0.311 2.64,-0.36 -0.242,0.637 -0.918,0.842 -1.8,0.84 0.906,0.565 3.148,-0.056 3.72,-0.24 0.384,0.017 0.397,0.403 0.721,0.48 0.006,0.486 -0.547,0.413 -0.84,0.6 0.359,0.079 -0.115,0.256 0,0.48 0.093,0.027 0.236,0.003 0.239,0.12 0.548,-0.052 0.588,-0.612 1.32,-0.479 0.156,0.298 -0.353,0.498 0,0.6 0.589,-0.121 1.205,-0.753 1.68,-0.6 -0.226,0.382 0.03,0.502 -0.12,0.96 1.094,-0.687 1.596,-1.318 2.881,-1.68 -0.11,-0.46 -0.263,-1.897 0.239,-2.4 0.274,0.205 0.044,0.916 0.12,1.32 1.088,-1.045 0.229,-3.206 0.48,-3.96 0.526,0.233 0.031,1.489 0.72,1.56 0.291,-1.309 -0.588,-2.97 -0.601,-3.96 0.6,0.161 0.298,1.222 0.961,1.32 -0.112,-1.708 -0.796,-2.709 -1.08,-3.96 0.369,-0.089 0.23,0.33 0.6,0.24 -0.103,-0.458 -0.356,-0.763 -0.48,-1.2 0.314,-0.14 0.517,0.37 0.48,-0.12 -0.133,-0.507 -0.382,-0.898 -0.48,-1.44 0.16,0 0.32,0 0.48,0 -0.417,-0.969 0.124,-1.616 -1.2,-1.8 0.146,-0.463 0.56,0.087 0.601,-0.48 -0.396,-0.483 -0.871,-0.89 -1.2,-1.44 -0.036,-0.316 0.466,-0.095 0.36,-0.48 -0.519,-0.456 -1.321,-0.946 -0.961,-1.92 -1.101,-0.379 -1.38,-1.58 -2.039,-2.4 0.663,-0.144 0.418,0.622 0.959,0.6 -0.533,-1.547 -2.526,-1.633 -2.64,-3.6 -0.395,-0.125 -0.703,-0.337 -0.84,-0.72 0.506,0.149 0.86,0.156 0.96,-0.36 -0.609,-0.66 -0.792,0.256 -1.32,-0.24 -0.035,-0.315 0.466,-0.095 0.36,-0.48 -0.191,-0.331 -0.825,-0.742 -0.96,-0.12 0.396,-1.073 -1.248,-0.829 -1.561,-1.56 0.079,-0.359 0.257,0.115 0.48,0 -0.362,-0.573 -0.307,-1.204 -1.32,-0.72 -0.153,-0.529 0.574,-0.492 0.24,-0.84 -0.434,-0.242 -0.581,0.012 -0.96,0.12 0.033,-0.593 -0.54,-0.58 -0.84,-0.84 0.067,-0.245 0.361,-0.235 0.12,-0.48 -0.797,-0.352 -1.518,-0.636 -1.561,-1.44 -1.043,-0.335 -1.172,-0.946 -1.92,-1.44 0.018,-0.142 0.214,-0.272 0,-0.36 -0.256,0.248 -0.948,-0.085 -0.96,-0.48 -0.035,-0.321 0.466,0.319 0.36,-0.24 -0.062,-0.178 -0.178,-0.303 -0.24,-0.48 -0.438,-0.079 -0.46,0.26 -0.84,0.24 -0.173,-0.187 -0.483,-0.237 -0.36,-0.72 -1.167,-0.033 -1.309,-1.091 -2.159,-1.44 0.229,-0.429 -0.034,-0.762 -0.48,-0.84 -0.239,0.173 0.188,0.483 -0.48,0.36 -0.026,-0.358 0.443,-0.408 0.12,-0.72 -0.497,-0.138 -0.468,0.252 -0.84,0.24 -0.433,-1.967 -3.459,-1.341 -3.84,-3.36 0.16,0 0.32,0 0.479,0 0.059,-0.458 -0.424,-0.375 -0.6,-0.6 -0.562,-0.067 -0.485,0.957 -0.96,0.6 -0.079,-0.439 0.26,-0.46 0.24,-0.84 -0.478,0.037 -0.603,-0.277 -1.08,-0.24 -0.076,0.262 0.34,0.382 -0.12,0.36 0.084,-0.896 -1.731,-0.682 -2.28,-1.32 0.291,-0.069 0.268,-0.453 0.36,-0.72 -0.662,-0.142 -0.833,0.207 -1.32,0.24 0.163,-0.723 -0.753,-0.366 -1.08,-0.6 0.217,-0.656 -0.357,-0.522 -0.479,-0.84 0.159,-0.121 0.446,-0.114 0.479,-0.36 -1.309,-0.051 -2.602,-0.119 -3.479,-0.6 -0.123,-0.483 0.187,-0.533 0.36,-0.72 -1.193,-0.646 -3.626,-0.054 -4.32,-1.2 0.511,0.009 0.839,0.201 1.439,0.12 -0.979,-0.368 -2.272,-0.969 -3.479,-0.72 -0.192,-0.847 -1.354,-0.726 -1.92,-1.2 -0.247,0.033 -0.028,0.531 -0.36,0.48 -0.051,-0.564 -0.449,-0.338 -0.6,-0.96 -0.896,0.016 -1.77,0.01 -1.92,-0.72 -0.77,0.008 -1.587,0.067 -1.801,-0.48 0.39,-0.07 0.559,0.082 0.841,0.12 -0.146,-0.504 0.193,-0.526 0.239,-0.84 -0.592,0.19 -0.813,-0.351 -1.08,-0.12 -0.292,0.121 0.235,0.531 -0.359,0.48 -0.261,0.021 -0.055,-0.425 -0.12,-0.6 -1.634,0.194 -2.272,-0.607 -3.6,-0.72 0.183,-0.257 0.487,-0.392 0.479,-0.84 -0.362,0.317 -0.824,0.536 -1.439,0.6 -0.492,-1.423 -1.878,-0.562 -2.881,-1.561 0.05,-0.47 0.771,-0.269 0.841,-0.72 -1.104,0.074 -2.298,0.061 -3.48,-0.12 -0.101,-0.139 -0.158,-0.322 -0.12,-0.6 -0.403,0.071 -0.808,-0.043 -0.479,-0.36 -1.238,0.027 -2.062,-0.728 -3.24,-1.08 0.471,-0.129 1.478,0.278 1.56,-0.24 -0.346,-0.272 -1.157,0.277 -1.319,-0.36 -0.168,0.438 -1.708,0.788 -1.08,0 -0.635,-0.162 -1.387,0.453 -1.681,-0.12 0.515,-0.286 1.59,-0.011 1.681,-0.72 -1.433,0.142 -2.903,0.564 -4.44,0.24 0.087,-0.367 -0.207,-0.353 -0.12,-0.72 0.679,-0.322 1.717,-0.284 2.16,-0.84 -1.238,0.526 -2.176,-0.118 -3.36,0.36 0.25,0.143 -0.055,0.735 -0.479,0.6 -0.031,-0.352 0.271,-0.369 0.24,-0.72 -0.961,-0.01 -1.994,0.391 -2.4,-0.36 -0.614,-0.214 -0.481,0.318 -0.84,0.36 -0.15,-0.53 -1.36,10e-4 -1.68,-0.36 0.943,-0.934 3.245,0.151 4.199,-0.84 -3.362,0.194 -6.32,0.307 -9.24,0 0.325,-0.22 0.021,-0.406 0.24,-0.6 0.312,-0.288 1.207,0.007 1.32,-0.48 -1.783,0.097 -3.766,0.751 -5.04,0.36 0.011,-0.189 0.306,-0.094 0.24,-0.36 -1.68,0.46 -3.189,0.083 -4.68,0.36 -0.301,-0.211 -0.084,-0.198 -0.24,-0.48 -0.432,0.068 -1.208,0.302 -1.44,-0.12 0.955,-0.245 2.229,-0.171 3,-0.6 -0.603,-0.186 -1.247,0.395 -1.439,-0.12 0.137,-0.263 0.918,0.119 0.72,-0.48 -0.6,-0.118 -1.61,0.388 -2.4,0.48 -0.304,-0.346 -0.125,-0.208 0,-0.6 -1.392,0.168 -2.381,0.739 -3.84,0.84 0.007,-0.153 0.154,-0.166 0.12,-0.36 -1.181,-0.06 -2.165,0.714 -3.24,0.36 0.139,-0.177 0.139,-0.302 0,-0.48 0.361,-0.278 1.018,-0.262 1.08,-0.84 -0.587,-0.027 -0.796,0.324 -1.32,0.36 -0.027,-0.227 0.135,-0.265 0.12,-0.48 -1.106,0.454 -2.295,1.464 -3.72,1.2 -0.07,-0.431 0.717,-0.003 0.6,-0.48 -0.947,-0.224 -1.429,0.836 -2.4,0.48 0.177,-0.586 1.582,-0.575 1.32,-1.2 -1.604,0.237 -2.897,1.422 -4.56,1.2 0.08,-0.52 1.055,-0.146 1.08,-0.72 -1.034,0.127 -2.178,0.78 -3,0.72 0.168,-0.792 1.507,-0.414 1.92,-0.96 -1.298,0.182 -2.462,0.498 -3.6,0.84 -0.14,-0.02 -0.13,-0.189 -0.12,-0.36 -0.897,0.262 -1.813,0.506 -2.64,0.84 -0.258,-0.102 -0.424,-0.295 -0.36,-0.72 0.671,-0.168 1.469,-0.211 1.68,-0.84 -1.836,-0.107 -2.648,2.499 -4.08,1.32 1.087,-0.513 2.264,-0.937 3.12,-1.68 -2.039,0.281 -3.275,1.365 -4.8,2.16 -0.443,-0.567 0.488,-1.184 0.36,-1.68 -0.862,0.217 -1.639,0.521 -2.16,1.08 -0.049,-0.471 -0.675,-0.365 -1.2,-0.36 0.145,-0.506 -0.498,-0.104 -0.48,-0.72 -1.197,0.403 -1.826,1.374 -3.48,1.32 0,-0.12 0,-0.24 0,-0.36 -0.82,0.18 -1.557,0.443 -1.92,1.08 0.379,0.011 0.716,-0.321 0.72,0.24 -2.096,0.02 -3.817,0.945 -5.52,-0.12 -0.376,0.144 -0.232,0.808 -0.84,0.72 -0.198,-0.187 0.041,-0.468 0.12,-0.72 -1.976,-0.524 -3.515,1.219 -5.64,1.32 -0.334,-0.178 0.254,-0.536 -0.24,-0.48 -0.406,0.023 -1.183,0.802 -1.32,0 -0.829,0.171 -1.299,0.7 -2.04,0.96 -0.222,-0.956 1.455,-0.907 1.68,-1.8 -0.519,0 -0.762,0.278 -1.32,0.24 -0.325,0.22 -0.021,0.406 -0.24,0.6 -0.677,-0.63 -1.645,0.824 -2.4,0.48 0.472,-0.768 1.644,-0.835 1.92,-1.8 -1.691,0.749 -3.168,1.711 -4.56,2.76 -0.239,-1.252 1.662,-1.369 2.04,-2.4 -0.292,0.077 -0.617,0.242 -0.6,-0.24 -1.09,0.472 -2.652,1.979 -3.84,1.2 -0.329,0.426 0.01,1.317 -0.96,1.32 -0.103,-0.217 -0.309,-0.331 -0.36,-0.6 0.377,-0.502 1.044,-0.715 1.32,-1.32 -0.49,-0.469 -0.956,0.15 -1.44,0.36 -0.181,1.06 -1.63,1.889 -2.76,2.4 -0.087,-0.328 0.239,-0.242 0.24,-0.48 -0.402,-0.113 -0.756,0.431 -0.96,0.12 0.352,-0.087 0.428,-0.452 0.6,-0.72 -0.637,0.323 -1.473,0.447 -1.8,1.08 0.273,-0.034 0.451,0.029 0.48,0.24 -0.509,0.25 -2.143,1.052 -2.28,-0.12 0.422,-0.698 1.224,-1.017 1.68,-1.68 -1.773,0.75 -3.27,2.406 -5.16,2.64 0.161,-0.519 1.028,-0.332 1.08,-0.96 -1.15,-0.601 -2.166,1.459 -3.36,1.2 0.105,-0.538 1.275,-0.641 1.08,-1.08 -1.739,-0.17 -3.595,2.02 -4.92,2.64 0.61,-1.23 1.935,-1.745 2.76,-2.76 -1.659,0.426 -2.479,2.315 -3.84,2.64 0.509,-0.771 1.381,-1.179 1.8,-2.04 -1.361,0.904 -2.877,1.823 -3.84,3 -0.278,0.341 -0.164,1.022 -0.84,0.96 -0.14,-0.02 -0.13,-0.189 -0.12,-0.36 -0.753,-0.033 -0.633,0.807 -1.2,0.96 0.243,-1.277 1.313,-1.727 1.68,-2.88 -1.608,0.752 -1.972,2.748 -3.12,3.96 -0.229,-0.051 -0.217,-0.343 -0.6,-0.24 -0.108,0.572 -0.398,0.962 -0.96,1.08 0.613,-1.626 1.647,-2.833 2.52,-4.2 -0.908,0.012 -0.832,1.007 -1.56,1.2 -0.742,1.019 -0.938,2.582 -1.92,3.36 0.126,-0.954 0.706,-1.454 0.84,-2.4 -1.114,-0.041 -1.366,1.73 -2.28,2.28 -0.512,-0.008 -0.646,-0.394 -1.08,-0.48 -0.591,0.409 -0.395,1.604 -1.2,1.8 -0.101,-1.352 1.267,-2.479 0.84,-3.36 -0.558,0.482 -0.542,1.538 -1.44,1.68 0.272,0.756 -0.382,1.397 -0.72,1.92 -0.216,-0.898 0.681,-1.718 0.84,-2.64 -1.435,0.405 -1.408,2.272 -2.64,2.88 -0.193,-0.701 0.765,-1.215 0.96,-1.92 -1.037,0.083 -1.035,1.205 -1.68,1.68 -0.389,0.148 -0.092,-0.389 -0.48,-0.24 -0.206,0.194 -0.046,0.754 -0.48,0.72 -0.428,-0.102 -0.014,-0.295 -0.12,-0.72 -0.614,0.227 -0.477,1.204 -1.08,1.44 -0.329,-0.52 -0.592,0.182 -0.96,-0.12 -0.122,-0.687 0.5,-1.119 0.12,-1.68 -0.983,0.411 -0.955,2.549 -1.8,2.4 0.228,0.04 -0.353,-0.252 0,-0.48 -0.946,0.611 -0.354,2.229 -1.92,2.04 0.371,-0.549 0.719,-1.121 1.08,-1.68 -0.503,0.044 -0.086,-0.391 -0.12,-0.6 -1.219,0.507 -1.108,2.963 -2.28,3.12 0.352,-1.415 1.452,-2.7 1.68,-3.84 -1.696,0.508 -1.979,3.055 -3.24,3.6 0.272,-0.728 0.842,-1.158 0.96,-2.04 -1.331,0.589 -1.246,2.594 -2.4,3.36 -0.104,-0.583 0.343,-0.616 0.24,-1.2 -1.149,0.61 -0.801,2.718 -1.92,3.36 -0.178,-0.022 -0.11,-0.29 -0.12,-0.48 -0.508,-0.028 -0.211,0.749 -0.72,0.72 -0.521,-0.327 0.104,-0.514 0,-1.08 -0.224,-0.114 -0.401,0.359 -0.48,0 0.014,-0.465 0.838,-1.267 0.24,-1.56 -0.645,0.755 -0.613,2.187 -1.44,2.76 -0.019,-1.516 1.204,-2.713 1.44,-4.08 -1.027,0.413 -1.205,1.675 -1.92,2.4 -0.289,0.049 -0.261,-0.219 -0.6,-0.12 -1.364,1.423 -1.919,4.512 -3.48,5.28 0.576,-1.304 1.228,-2.532 1.68,-3.96 -1.903,1.137 -1.813,4.267 -3.6,5.52 -0.099,-0.339 0.169,-0.311 0.12,-0.6 -0.697,0.059 -0.964,0.929 -1.08,1.2 -1.118,0.042 -0.889,1.431 -2.04,1.44 0.443,-1.277 1.969,-2.111 1.68,-3.72 -1.255,2.145 -2.865,4.575 -4.56,5.88 0.688,-1.513 2.021,-2.38 2.52,-4.08 -2.174,2.386 -3.862,5.258 -6.48,7.2 0.112,-0.448 0.569,-0.55 0.6,-1.08 -1.93,0.241 -2.229,3.355 -4.08,2.88 0.401,-0.359 0.806,-0.714 0.96,-1.32 -1.107,0.093 -0.784,1.617 -1.92,1.68 -0.099,-0.339 0.169,-0.311 0.12,-0.6 -0.671,0.284 -1.128,-0.396 -1.44,-0.84 -0.435,0.085 -0.514,0.526 -1.2,0.36 -0.122,-0.398 -0.013,-1.027 -0.48,-1.08 -0.453,0.107 -0.28,0.841 -0.96,0.72 -0.026,-0.227 0.136,-0.265 0.12,-0.48 -0.499,0.314 -1.193,0.122 -1.56,-0.24 0.123,-0.276 0.413,-0.387 0.36,-0.84 -0.568,-0.087 -0.391,0.57 -0.84,0.6 -0.295,-0.305 -0.934,-0.266 -1.08,-0.72 0.386,-0.614 0.973,-1.027 0.96,-2.04 -0.84,0.201 -0.751,1.329 -1.56,1.56 -0.216,-0.303 0.024,-0.953 0.12,-1.32 -0.544,-0.104 -0.281,0.599 -0.72,0.6 -0.617,-0.705 0.396,-1.515 0.36,-2.4 -0.072,-0.126 -0.615,0.13 -0.6,-0.36 0.098,-0.622 0.503,-0.936 0.6,-1.56 -0.224,-0.115 -0.401,0.359 -0.48,0 0.126,-0.65 0.222,-0.519 0,-1.08 0.167,-0.353 0.586,-0.454 0.6,-0.96 -0.372,-0.12 -0.466,0.639 -0.72,0.24 0.027,-0.493 0.529,-0.511 0.479,-1.08 -0.352,-0.033 -0.445,0.481 -0.6,0 0.13,-0.59 0.729,-0.71 0.72,-1.44 -0.483,-0.083 -0.294,0.505 -0.72,0.48 -0.247,-0.755 0.719,-1.261 0.84,-2.04 -0.214,-0.072 -0.499,0.352 -0.6,0 0.37,-0.67 1.104,-0.976 1.32,-1.8 -0.522,-0.171 -0.552,0.41 -0.84,0.12 0.43,-0.851 1.09,-1.47 1.8,-2.04 0.036,-0.236 -0.162,-0.238 -0.24,-0.36 0.803,-0.797 1.292,-1.907 2.64,-2.16 0.117,-0.582 -0.671,0.046 -0.6,-0.24 0.663,-0.977 2.019,-1.261 2.64,-2.28 -0.425,-0.136 -0.683,0.504 -0.96,0.12 0.457,-0.623 1.138,-1.021 1.92,-1.32 0.105,-0.386 -0.396,-0.165 -0.36,-0.48 1.199,-0.961 2.82,-1.5 4.08,-2.4 -0.502,-0.477 -1.254,0.374 -2.04,0.36 0.276,-1.124 2.172,-0.628 2.4,-1.8 -0.085,-0.305 -0.685,0.29 -0.72,-0.24 1.015,-0.785 2.89,-0.71 3.84,-1.56 -0.791,-0.052 -1.91,0.649 -2.4,0.12 0.948,-0.612 2.88,-0.24 3.6,-1.08 -0.842,-0.268 -1.685,0.175 -2.04,-0.12 1.283,-1.08 4.632,-0.312 5.88,-1.08 -1.229,0.048 -3.083,0.38 -3.84,-0.36 0.947,-0.493 2.868,-0.012 3.36,-0.96 -0.46,-0.365 -1.18,0.214 -1.56,-0.12 0.321,-0.433 0.903,-0.712 1.56,-0.48 0.429,-0.372 0.792,-0.808 1.56,-0.84 -0.32,-0.469 0.19,-0.591 0,-1.08 0.598,-0.042 0.95,-0.33 1.68,-0.24 -0.365,-0.883 1.549,-0.314 1.8,-0.96 -0.088,-0.191 -0.587,0.027 -0.48,-0.36 0.708,-0.155 2.235,-0.144 2.88,-0.72 -0.611,-0.132 -1.109,0.285 -1.32,-0.12 1.522,-1.018 4.627,-0.704 6.72,-0.72 0.456,-0.003 1.006,0.111 1.2,-0.36 -1.278,-0.202 -2.951,-0.008 -3.96,-0.48 1.291,0.01 2.431,-0.768 3.48,-0.6 -0.002,0.198 -0.333,0.067 -0.36,0.24 1.509,-0.091 2.731,-0.469 4.44,-0.36 -0.116,-0.644 -1.395,-0.125 -1.68,-0.6 0.532,-0.628 2.312,-0.008 2.88,-0.6 -0.542,-0.098 -1.511,0.231 -1.68,-0.24 1.332,-0.354 3.701,0.522 4.8,0 -0.56,-0.56 -2.193,-0.047 -2.64,-0.72 0.401,-0.719 1.812,-0.427 2.76,-0.6 0.159,-0.3 -0.475,-0.375 -0.12,-0.48 0.251,-0.236 0.797,-0.092 1.08,0 0.115,-0.224 -0.359,-0.401 0,-0.48 0.789,-0.205 1.784,0.359 2.76,0.36 -0.141,-0.699 -1.249,-0.432 -1.56,-0.96 1.345,-0.688 3.65,0.707 5.16,0.12 -0.633,-0.488 -1.697,-0.543 -2.521,-0.84 0.173,-0.428 1.441,-0.264 1.8,-0.12 0.115,-0.224 -0.359,-0.401 0,-0.48 0.958,0.282 2.248,0.232 3.12,0.6 0.038,-0.442 0.901,-0.059 1.08,-0.36 -0.578,-0.142 -1.494,0.055 -1.56,-0.6 0.337,0.183 0.926,0.114 1.32,0.24 0.02,-0.74 -1.429,-0.011 -1.56,-0.6 1.693,-0.134 2.598,0.635 3.6,0.36 -0.18,-0.141 -0.491,-0.149 -0.6,-0.36 0.612,-0.4 -0.478,-0.418 -0.12,-0.84 1.341,0.143 2.591,-0.217 3.72,0.24 0.099,-0.459 -0.579,-0.142 -0.48,-0.6 0.805,-0.004 1.292,0.308 2.04,0.36 0.029,-0.862 1.516,-0.169 2.16,0 -0.233,-0.688 -1.38,-0.46 -1.68,-1.08 0.934,-0.201 1.91,0.452 3,0.48 0.058,-0.538 -0.823,-0.137 -0.72,-0.72 1.414,0.025 2.557,-0.103 3.84,0.48 -0.071,-0.689 -1.198,-0.323 -1.32,-0.96 2.237,-0.446 4.418,0.913 6.36,1.2 -0.746,-0.814 -2.338,-0.782 -3.12,-1.56 0.827,-0.319 1.58,0.4 2.4,0.48 -0.024,-0.535 -0.833,-0.287 -0.96,-0.72 1.063,-0.441 1.736,0.487 2.64,0.6 -0.333,-0.4 -0.359,-0.516 0,-0.96 0.74,-0.1 0.936,0.344 1.56,0.36 1.14,-1.052 2.6,0.525 3.96,0.6 -0.195,-0.605 -1.11,-0.49 -1.32,-1.08 0.307,-0.055 0.607,0.004 0.84,-0.36 -0.133,0.377 -0.056,0.317 0.12,0.6 0.363,-0.117 0.643,-0.317 1.08,-0.36 0.434,0.166 0.672,0.528 1.2,0.6 0.315,-0.196 -0.704,-0.469 -0.24,-0.84 0.562,0.368 2.436,0.263 1.8,1.08 0.762,-0.364 1.023,0.368 1.56,0.12 -0.212,-0.828 -1.508,-0.572 -1.68,-1.44 0.699,-0.059 0.812,0.468 1.32,0.6 0.12,-0.372 -0.639,-0.466 -0.24,-0.72 0.42,0.406 0.819,0.121 1.32,0 0.507,0.333 0.75,0.93 1.44,1.08 0.019,-0.141 -0.021,-0.341 0.12,-0.36 -0.09,-0.51 -0.839,-0.361 -0.72,-1.08 1.26,0.34 1.787,1.413 3.12,1.68 -0.332,-0.708 -1.162,-0.917 -1.8,-1.32 0,-0.16 0,-0.32 0,-0.48 0.24,0 0.48,0 0.72,0 0.027,0.227 -0.135,0.265 -0.12,0.48 1.174,0.732 2.341,1.08 3.48,1.08 -0.216,-0.344 -0.717,-0.403 -0.84,-0.84 0.522,0.038 0.759,0.361 1.2,0.48 0.001,-0.601 -0.771,-0.429 -0.84,-0.96 1.815,0.187 2.9,0.983 4.8,1.32 -0.616,-0.664 -1.552,-1.008 -2.16,-1.68 0.357,-0.107 0.292,-0.333 0.36,-0.48 0.575,-0.054 0.91,0.13 1.08,0.48 -0.067,0.245 -0.361,0.235 -0.12,0.48 0.32,0.439 1.222,0.297 1.68,0.6 0.127,-0.447 -0.45,-0.19 -0.36,-0.6 0.18,-0.021 0.443,0.042 0.48,-0.12 -0.472,-0.249 -0.167,-0.774 -0.72,-1.08 0.447,-0.099 1.278,-0.449 1.56,0 -0.033,0.247 -0.447,0.113 -0.48,0.36 0.604,0.324 1.328,0.423 2.04,0.24 -0.208,-0.312 -0.99,-0.05 -0.96,-0.6 0.679,0.081 1.354,0.166 1.32,0.96 0.699,0.063 1.647,0.509 2.16,0.36 -0.659,-0.5 -1.375,-0.945 -2.16,-1.32 0.108,-0.212 0.268,-0.372 0.479,-0.48 0.498,0.343 0.785,0.896 1.561,0.96 -0.225,-0.997 0.709,-0.234 0.72,-0.84 0.307,-0.129 0.42,0.517 0.6,0.12 -0.096,-0.013 -0.364,-0.396 -0.12,-0.36 1.312,0.368 1.728,1.632 3.24,1.8 -0.23,-0.729 -0.735,-1.185 -1.08,-1.8 0.949,-0.613 1.877,0.39 2.28,-0.24 0.506,0.479 1.16,0.173 1.8,0.6 0.012,-0.188 -0.016,-0.416 0.24,-0.36 0.917,0.47 1.502,1.822 2.76,1.56 -0.252,-0.788 -1.107,-0.973 -1.439,-1.68 0.734,-0.15 1.169,0.973 1.92,1.2 -0.104,-0.496 -0.496,-0.704 -0.6,-1.2 0.776,-0.018 1.148,0.073 1.92,0.36 -0.021,-0.3 0.269,-0.291 0.36,-0.479 0.928,0.712 1.868,2.051 3.24,1.92 -0.336,-0.512 -1.416,-1.399 -0.96,-1.92 0.463,0.497 0.582,1.337 1.44,1.44 -0.187,-0.378 -0.422,-1.197 -0.24,-1.56 0.622,0.218 0.693,0.986 1.08,1.44 0.356,-0.346 0.674,0.86 1.2,0.36 -0.203,-0.73 -1.092,-1.234 -1.08,-1.8 0.85,0.549 1.558,1.242 2.52,1.68 -0.04,-0.597 -0.676,-1.041 -0.12,-1.56 0.389,0.158 0.204,1.112 0.96,1.2 0.436,-0.077 -0.278,-0.561 0.12,-0.6 0.388,-0.148 0.092,0.389 0.48,0.24 0.1,-0.313 -0.363,-0.658 0,-0.84 0.35,0.93 1.178,1.382 1.92,1.92 0.1,-0.517 -0.427,-1.215 0.12,-1.44 0.062,0.764 0.769,0.197 1.2,0.48 0.024,-0.417 -0.042,-0.923 0.36,-0.96 0.032,0.608 0.295,0.984 0.84,1.08 0.002,-0.369 -0.646,-0.704 -0.24,-1.08 0.559,0.241 0.702,0.898 1.32,1.08 0.24,-0.16 0.016,-0.784 0.6,-0.6 0.115,0.515 -0.337,0.464 -0.36,0.84 0.518,0.002 0.442,0.598 0.96,0.6 0.289,-0.489 -0.547,-1.206 -0.24,-1.68 0.858,0.222 0.848,1.312 1.8,1.44 0.017,-0.383 0.444,-0.356 0.48,-0.72 -0.211,-0.309 -0.476,-0.564 -0.72,-0.84 0.994,-0.177 1.291,1.336 2.4,1.44 -0.021,-0.46 0.098,-0.043 0.36,-0.12 0.206,-0.039 -0.11,-0.372 0.24,-0.48 0.467,0.133 0.443,0.756 0.96,0.84 0.091,-0.188 0.381,-0.179 0.36,-0.48 0.114,-0.318 -0.715,-0.722 -0.84,-1.2 1.483,-0.323 0.875,1.445 2.04,1.44 0.646,-0.234 0.661,-1.099 1.32,-1.32 -0.63,0.851 -0.114,1.496 -0.96,1.92 0.367,0.113 0.376,0.584 0.84,0.6 0.622,-1.029 1.473,1.029 2.64,0.6 -0.391,-0.765 -0.938,-1.95 -0.36,-2.76 0.107,0.493 0.374,0.826 0.36,1.44 0.896,0.189 0.454,1.611 1.44,1.8 0.012,-0.188 -0.016,-0.416 0.24,-0.36 -0.307,-0.292 -0.238,-1.042 0.24,-1.2 -0.317,-0.603 -1.082,-0.758 -1.2,-1.56 0.153,-0.006 0.166,-0.154 0.36,-0.12 0.339,0.381 0.379,1.061 0.96,1.2 0.341,0.051 0.325,-0.862 0.72,-0.36 0.098,0.458 -0.579,0.141 -0.48,0.6 0.454,0.25 0.565,0.376 1.2,0.24 0.072,-0.214 -0.352,-0.499 0,-0.6 0.405,0.508 0.536,0.178 1.2,0.12 0.11,0.597 -0.378,0.511 -0.12,0.96 0.47,-0.018 0.479,-0.409 0.96,-0.12 -0.062,-0.542 -0.949,-0.887 -0.6,-1.44 0.854,0.746 1.407,1.793 2.52,2.28 -0.203,-0.716 -0.499,-1.34 -1.2,-1.56 -0.013,-0.299 -0.225,-0.372 0,-0.6 0.436,0.317 0.948,0.667 1.68,0.36 1.054,0.986 1.866,2.214 3.36,2.76 -0.187,-0.427 0.407,-0.073 0.36,-0.36 -0.176,-0.104 -0.465,-0.095 -0.36,-0.48 1.163,0.232 0.912,0.655 2.04,1.08 0.216,-0.184 0.359,-0.44 0.479,-0.72 0.343,0.107 0.877,-0.231 1.2,0.36 -0.232,0.43 0.046,0.439 0.12,0.84 0.519,-0.16 0.798,0.008 0.84,0.6 0.413,-0.19 0.61,-0.332 0.84,0.12 0.137,-0.304 0.61,-0.271 0.84,-0.48 0.282,0.399 0.424,0.314 0.841,0.12 0.29,0.234 0.55,1.125 0.96,0.84 -0.141,-0.423 0.302,-0.702 0.12,-1.08 0.893,0.15 1.082,1.36 2.159,0.96 0.062,0.178 0.178,0.302 0.24,0.48 0.416,0.096 0.461,-0.179 0.84,-0.12 0.06,0.377 -0.413,0.317 -0.12,0.6 1.066,-0.406 1.123,1.074 2.28,0.96 -0.024,-0.499 -0.894,-0.781 -0.6,-1.2 0.881,0.519 1.246,1.554 2.399,1.8 -0.061,-0.539 -0.679,-0.521 -0.6,-1.2 0.497,-0.017 0.428,0.532 1.08,0.36 -0.237,0.616 0.513,1.47 1.2,1.2 -0.103,0.383 0.104,0.456 0.239,0.6 0.211,0.049 0.817,-0.122 1.08,-0.12 -0.278,-0.481 -0.884,-0.636 -1.08,-1.2 1.915,0.405 2.714,1.926 4.2,2.76 -0.187,-0.426 0.408,-0.072 0.36,-0.36 -0.183,-0.298 -0.472,-0.489 -0.48,-0.96 1.313,0.207 1.521,1.52 2.761,1.8 0.084,-0.374 -0.671,-0.516 -0.24,-0.84 0.72,0.16 0.789,0.971 1.56,1.08 0.13,-0.307 -0.517,-0.42 -0.12,-0.6 0.852,0.639 1.883,0.414 2.521,1.32 -0.033,-0.273 0.029,-0.451 0.24,-0.48 0.523,0.412 0.916,1.063 1.439,0.84 -0.107,0.351 -0.107,0.369 0,0.72 0.289,0.091 0.581,0.095 0.84,-0.12 -0.208,-0.109 -0.31,-0.42 -0.119,-0.6 1.258,0.542 2.297,1.302 3.6,1.8 -0.243,0.231 -0.279,0.483 -0.12,0.84 0.24,0 0.479,0 0.72,0 0.032,-0.357 -0.336,-0.73 0.12,-0.84 0.388,0.253 0.687,0.594 1.08,0.84 0.677,-0.567 1.41,0.933 2.16,0.72 -0.648,0.517 0.353,1.061 0.6,1.44 0.557,-0.383 -0.144,-1.082 0,-1.32 0.909,0.051 0.857,1.063 1.44,1.44 0.451,0.051 0.425,-0.375 0.72,-0.48 0.454,0.226 0.728,0.632 1.08,0.96 0.307,0.093 0.552,-0.47 0.72,-0.12 -0.074,0.325 -0.501,0.299 -0.479,0.72 0.396,0.243 0.768,0.512 1.319,0.6 0.4,-0.362 -0.479,-0.898 -0.239,-1.08 0.887,-0.167 0.526,0.914 1.08,1.08 0.006,-0.185 0.247,-0.345 0.6,-0.48 0.491,0.349 0.958,0.722 1.2,1.32 0.473,0.192 0.042,-0.519 0.359,-0.48 1.05,0.279 1.508,0.564 2.041,1.2 0.708,-0.555 1.435,0.482 1.56,1.08 0.432,0.032 0.578,-0.222 0.96,-0.24 -0.019,1.393 1.883,0.123 2.04,1.32 0.879,-0.202 0.731,0.575 1.44,0.24 0.721,0.715 1.461,2.662 2.76,1.68 0.397,0.882 0.834,1.726 1.92,1.92 0.065,-0.174 -0.141,-0.62 0.12,-0.6 0.727,0.352 1.068,1.461 1.92,1.32 -0.598,0.494 0.333,1.168 0.84,1.32 0.436,-0.238 -0.661,-0.567 0,-0.72 0.512,0.313 0.928,1.141 1.44,1.08 0.167,0.993 0.778,1.541 1.439,2.04 0.246,-0.113 0.102,-0.618 0.48,-0.6 1.598,0.961 3.067,2.052 4.199,3.48 0.383,0.071 0.371,-0.226 0.601,0 -0.397,0.412 -0.129,0.828 0.12,1.2 0.482,0.083 0.294,-0.505 0.72,-0.48 0.312,0.367 0.431,0.929 0.84,1.2 0.644,-0.162 1.531,0.467 1.56,1.32 0.439,-0.026 0.461,-0.165 0.841,0 -0.074,0.714 0.756,0.524 0.6,1.32 0.352,0.033 0.445,-0.481 0.601,0 0.176,0.456 -0.537,0.023 -0.36,0.479 0.276,0.044 0.114,0.525 0.479,0.48 0.38,0.059 0.045,-0.596 0.48,-0.48 0.615,0.385 0.799,0.833 0.84,1.561 1.942,-0.307 1.96,2.254 3.72,2.52 0.137,0.264 0.31,0.491 0.24,0.96 0.289,0.049 0.261,-0.219 0.601,-0.12 0.595,0.766 0.778,2.58 1.8,2.52 -0.105,-0.109 -0.345,-0.678 -0.12,-0.72 0.513,0.328 0.241,1.438 0.96,1.56 0.165,-0.273 -0.31,-0.451 0,-0.48 0.78,0.078 0.261,0.819 0.479,1.32 0.37,0.089 0.23,-0.329 0.601,-0.24 0.803,0.693 0.754,2.264 1.08,3.12 0.277,-0.162 -0.022,-0.902 0.359,-0.96 0.267,0.534 0.667,0.933 0.72,1.68 0.898,0.062 1.002,0.919 1.08,1.8 0.454,0.173 0.23,-0.33 0.601,-0.24 0.206,1.314 1.217,1.823 1.44,3.12 0.883,-0.016 0.918,1.489 1.199,2.16 0.337,-0.002 -0.285,-0.328 0.24,-0.24 0.602,0.718 0.936,1.704 1.08,2.88 0.18,0.021 0.442,-0.043 0.48,0.12 0.318,1 0.819,1.82 0.959,3 0.963,0.757 0.784,2.656 1.681,3.48 0.058,0.458 -0.556,0.245 -0.36,0.84 0.448,0.128 0.342,-0.298 0.721,-0.24 0.41,1.589 1.445,2.554 1.319,4.68 0.18,0.021 0.443,-0.042 0.48,0.12 1.263,3.658 1.969,8.166 2.04,12.6 0.819,0.27 -0.233,1.964 0.6,2.28 -0.182,1.75 -0.48,2.642 -1.2,3.84 0.923,0.003 0.585,-1.255 1.44,-1.32 0.452,0.634 -0.465,0.771 -0.36,1.44 0.26,0.349 0.746,-0.274 0.84,0.24 -0.16,0.56 -0.526,0.913 -0.6,1.56 0.542,0.142 0.269,-0.532 0.84,-0.36 0.151,0.631 -0.249,0.711 -0.24,1.2 0.888,0.137 0.367,0.946 0.48,1.8 0.433,0.082 0.325,-0.637 0.72,-0.24 -0.451,0.817 0.049,1.413 -0.6,2.52 0.601,0.199 0.422,-0.743 0.84,-0.36 -0.224,1.048 0.479,1.59 0.12,2.4 4.142,1.06 6.399,5.005 5.28,10.56 -0.236,-0.036 -0.238,0.162 -0.36,0.24 0.361,0.849 0.244,3.281 -0.601,4.2 0.103,0.217 0.31,0.331 0.36,0.6 -0.157,0.154 -0.442,0.154 -0.6,0 0.051,1.675 0.747,3.118 -0.12,4.2 0.068,0.629 0.203,1.675 -0.48,2.04 0.33,1.419 0.304,3.086 -0.24,4.08 0.832,0.224 0.936,2.12 0.12,2.4 0.236,0.284 -0.033,1.074 0.24,1.32 0.032,-0.283 0.531,-0.073 0.48,0.12 0.126,0.526 -0.406,0.394 -0.36,0.84 0.543,0.498 0.557,2.162 0.48,2.88 -0.231,-0.049 -0.096,-0.465 -0.48,-0.36 -0.132,1.962 0.729,3.455 0,5.4 0.051,0.229 0.343,0.217 0.24,0.6 0.059,0.38 -0.596,0.045 -0.48,0.48 0.098,0.617 0.009,0.846 0.24,1.439 0.035,0.316 -0.466,0.095 -0.36,0.48 0.284,4.714 -1.664,9.105 -1.8,13.92 -0.12,0 -0.24,0 -0.359,0 -0.129,0.448 0.298,0.342 0.239,0.72 -0.623,0.1 -0.543,1.26 -0.359,1.8 -0.163,0.038 -0.229,0.171 -0.48,0.12 -0.188,1.103 0.285,2.173 -0.6,2.641 -0.125,0.657 1.195,1.476 0.239,1.8 0.227,0.522 0.841,1.513 0.24,1.8 0.516,0.434 0.198,1.074 -0.12,1.561 0.519,1.008 0.75,3.729 0.12,4.439 0.3,0.428 0.86,1.56 -0.12,1.681 -0.079,0.438 0.26,0.46 0.24,0.84 -0.373,0.415 -0.808,0.664 -0.36,1.319 -0.159,0 -0.319,0 -0.479,0 0.27,0.999 -0.843,1.161 -0.36,2.4 -0.278,0.038 -0.461,-0.02 -0.6,-0.12 0.172,0.38 0.53,1.422 -0.24,1.44 0.187,0.377 0.154,0.747 -0.24,0.84 0.373,0.326 0.226,1.172 -0.359,1.2 0.43,1.166 -0.311,1.975 -0.36,3.239 -0.229,-0.051 -0.302,-0.258 -0.6,-0.239 -0.101,0.58 0.351,0.608 0.479,0.96 -0.61,0.756 -0.016,2.633 -0.96,2.76 -0.026,0.358 0.443,0.408 0.12,0.72 -0.248,0.023 -0.77,-0.604 -0.84,0 0.287,0.209 0.981,0.461 0.72,0.84 -0.478,0.078 -0.482,-0.317 -0.96,-0.24 0.014,0.588 0.822,0.379 0.96,0.841 -0.673,0.119 0.095,0.359 -0.239,0.72 0.444,-0.085 0.515,0.205 0.959,0.12 0,0.16 0,0.319 0,0.479 0.578,0.022 1.207,-0.006 1.08,0.721 0.28,-0.037 0.518,-0.257 0.601,0.119 -0.015,0.346 -0.512,0.209 -0.48,0.601 0.519,-0.012 0.901,-0.63 1.44,-0.24 0.021,0.206 -0.681,0.472 -0.12,0.48 0.308,-0.109 0.681,-0.194 0.84,0.12 -0.273,-0.034 -0.451,0.028 -0.479,0.239 1.92,0.083 2.845,1.518 4.08,1.92 -0.041,0.28 -0.123,0.518 -0.36,0.601 -0.387,0.026 -0.508,-0.213 -0.96,-0.12 0.084,0.369 0.084,0.23 0,0.6 1.756,-0.146 2.895,0.659 4.08,0.721 -0.138,0.527 -0.69,-0.105 -0.84,0.359 0.981,0.259 2.048,0.432 2.64,1.08 -0.136,0.377 0.034,0.317 -0.12,0.601 1.42,0.1 2.55,0.489 3.36,1.199 -0.002,0.159 -0.211,0.11 -0.24,0.24 1.197,0.751 3.067,1.375 3.479,2.521 0.996,0.334 2.413,0.853 2.28,1.92 -0.403,-0.042 -0.875,-0.272 -1.08,0.12 0.617,0.499 2.688,-0.322 2.521,0.72 -0.361,-0.199 -1.029,-0.091 -1.44,-0.24 0.166,0.675 1.645,0.847 1.92,0.36 0.108,0.812 1.465,0.375 1.2,1.56 0.523,0.151 0.533,0.035 0.96,-0.12 -0.055,0.678 1.322,0.901 1.8,1.44 0.148,0.388 -0.388,0.092 -0.24,0.479 1.184,0.281 2.756,0.732 2.761,1.801 1.009,-0.135 1.471,0.524 1.439,1.08 2.378,0.501 3.257,2.503 5.28,3.359 -0.166,0.194 -0.57,0.149 -0.48,0.6 1.057,0.344 2.534,0.267 3,1.2 -0.227,0.054 -0.723,-0.163 -0.6,0.24 0.633,0.008 1.248,0.032 1.44,0.48 -0.306,0.015 -0.466,0.175 -0.48,0.479 0.339,-0.099 0.312,0.169 0.601,0.12 0.231,-0.049 0.01,-0.55 0.479,-0.36 -10e-4,0.238 -0.327,0.153 -0.24,0.48 0.854,0.025 1.612,0.148 2.04,0.6 0.048,0.288 -0.546,-0.066 -0.359,0.36 1.001,0.172 2.341,0.601 2.399,1.32 0.383,0.103 0.456,-0.104 0.601,-0.24 0.087,0.272 -0.217,0.937 0.24,0.84 0.615,0.256 0.108,-0.611 0.6,-0.479 -0.18,1.219 1.98,0.099 2.04,1.079 0.364,-0.007 1.067,-0.362 1.2,0.12 -0.089,0.191 -0.588,-0.027 -0.48,0.36 1.351,-0.369 3.016,-0.425 4.561,-0.601 0.947,0.572 1.892,1.148 2.64,1.921 0.683,1.572 0.371,3.3 0.72,5.159 0.27,1.436 1.494,2.817 1.08,4.08 0.568,0.752 0.561,2.08 0.72,3.24 2.073,2.809 1.504,7.627 1.8,11.28 -0.035,0.244 -0.324,0.235 -0.359,0.479 0.18,0.232 0.505,-0.209 0.6,0.24 -0.172,0.358 -0.625,-0.315 -0.6,0.24 0.497,0.436 1.01,1.316 0.84,2.04 0.16,0.12 0.446,0.113 0.48,0.36 0.615,2.571 4.808,3.386 3.96,6.359 -0.584,2.047 -4.159,1.38 -5.761,1.44 -0.146,0.493 -1.029,0.249 -1.199,0.72 -0.596,-0.014 -0.59,0.117 -1.08,0 -0.429,0.371 -0.854,0.746 -1.801,0.6 -0.231,0.012 0.208,0.469 -0.239,0.48 -0.525,-0.138 -1.518,0.163 -2.16,-0.12 -0.431,0.477 -1.116,0.972 -1.92,0.72 -0.862,0.658 -1.463,1.577 -2.64,1.92 0.12,0.002 0.15,0.211 0,0.24 -2.686,1.556 -4.965,3.517 -9.121,3.6 0.438,-0.618 -0.356,-0.878 -0.479,-1.319 -1.184,-0.326 -2.261,0.777 -3.479,1.08 -0.639,0.158 -1.183,-0.058 -1.92,-0.12 -2.006,-0.171 -3.354,-0.099 -3,-2.641 -0.363,0.037 -0.43,0.372 -0.961,0.24 -2.554,-0.735 -1.431,-3.38 0.48,-3.96 -0.083,-0.236 -0.67,0.03 -0.72,-0.239 -0.201,-0.199 -0.096,-0.705 -0.12,-1.08 2.242,-2.799 4.203,-5.877 7.08,-8.04 0.047,-0.207 -0.179,-0.308 0,-0.36 1.641,-0.463 2.33,0.691 3.72,0.84 0.328,0.828 1.501,1.329 2.521,1.08 0.129,-0.307 -0.518,-0.42 -0.121,-0.6 1.374,0.057 1.955,-0.478 3.121,-1.08 -0.064,-0.298 -0.114,-0.489 -0.24,-0.96 0.285,-0.271 0.46,-0.938 0.72,-1.8 -0.269,-0.32 -0.602,0.169 -0.84,-0.12 0.595,-1.612 -0.169,-3.918 -0.48,-6 -0.656,-0.034 -0.729,-0.982 -0.6,-1.44 -0.409,-0.328 -1.079,-0.643 -1.08,-1.68 -1.094,-0.388 -1.738,-2.152 -2.4,-3.36 -0.868,-0.092 -1.34,-0.579 -1.8,-1.08 -0.442,0.396 -0.922,-0.192 -1.08,-0.479 -0.369,-0.09 -0.23,0.329 -0.6,0.239 -0.23,-0.25 -0.46,-0.5 -0.84,-0.6 -1.855,0.266 -2.948,-1.815 -5.04,-1.32 -0.513,-0.427 -1.26,-0.167 -1.92,-0.6 -1.175,0.285 -2.126,-0.688 -3.12,0 0.006,-0.37 -0.304,-0.603 -0.36,-1.2 -0.946,0.438 -1.328,-0.259 -2.28,-0.12 -0.05,-0.229 -0.043,-0.517 -0.359,-0.479 -0.083,-0.3 -0.32,0.223 -0.601,0.12 -0.373,-0.556 -1.013,-0.508 -1.8,-0.721 -0.795,-0.215 -0.77,-1.105 -1.32,-0.479 -0.34,-0.38 -0.865,-0.574 -1.199,-0.96 -1.493,0.157 -1.754,-1.049 -2.76,-1.32 -0.499,-0.134 -1.069,0.137 -1.561,0 -0.711,-0.198 -1.327,-0.954 -1.92,-1.32 -0.398,-0.038 -0.131,0.59 -0.72,0.36 -0.174,-0.454 0.329,-0.23 0.239,-0.6 -0.724,0.16 -1.075,-0.68 -1.68,-0.24 0.353,0.078 0.817,0.442 0.6,0.72 -0.624,-0.695 -1.826,-0.813 -2.399,-1.56 -0.447,-0.128 -0.19,0.449 -0.601,0.359 -0.093,-0.547 -0.936,-0.344 -0.959,-0.96 -0.529,-0.089 -0.492,0.389 -0.841,0.48 0.045,-0.729 -0.992,-0.814 -0.359,-1.44 -0.369,-0.031 -0.54,-0.26 -0.841,-0.359 -0.438,0.227 0.106,0.69 -0.359,0.84 -0.066,-0.432 0.021,-0.856 -0.6,-0.96 0.027,0.427 -0.173,0.627 -0.601,0.6 -0.137,-0.663 -0.496,-1.104 -1.2,-1.2 -0.027,0.213 0.121,0.602 -0.24,0.48 -0.181,-0.366 -0.865,-0.36 -0.479,-0.96 -0.425,-0.105 -0.618,0.308 -0.72,-0.12 -0.06,-0.379 0.596,-0.045 0.479,-0.48 -0.458,-0.341 -0.806,-0.793 -1.439,-0.96 -0.378,0.312 0.314,0.975 0,1.2 -0.444,0.005 -0.135,-0.746 -0.601,-0.72 -0.271,0.439 -1.199,-0.241 -1.56,-0.48 0.386,-0.039 0.265,-0.659 0,-0.72 -0.575,0.033 0.139,0.611 -0.36,0.72 -0.469,-0.45 -0.594,-1.245 -0.96,-1.8 -0.363,-0.013 -0.337,0.625 -0.72,0.24 -0.061,0.377 0.283,0.49 -0.12,0.6 -0.284,-0.396 -1.049,-0.311 -0.96,-1.08 -0.289,-0.049 -0.261,0.22 -0.6,0.12 -0.532,-0.868 -0.449,-2.352 -0.961,-3.239 -0.428,0.059 -0.823,0.064 -0.959,0.119 0.144,0.423 0.655,1.464 0.239,1.681 -0.409,-0.711 -0.472,-1.769 -0.96,-2.4 -1.678,0.745 -0.939,-2.355 -2.04,-2.399 -0.139,0.39 0.366,0.737 0,0.96 -0.838,-1.123 -1.141,-2.78 -2.399,-3.48 -0.062,0.429 0.62,0.73 0.359,0.96 -0.7,-0.3 -1.002,-0.998 -1.199,-1.8 -2.471,-1.931 -5.396,-3.405 -7.32,-5.88 -0.5,-0.061 -0.7,-0.42 -1.2,-0.48 -0.78,-1.14 -1.468,-2.371 -2.04,-3.72 -0.003,-0.282 0.207,-0.354 0.12,-0.72 -0.55,-0.189 -0.222,0.498 -0.601,0.479 0,-0.319 0,-0.64 0,-0.96 -0.447,-0.127 -0.189,0.45 -0.6,0.36 -0.224,-0.554 0.052,-0.715 0,-1.44 -0.41,-0.09 -0.152,0.488 -0.6,0.36 -0.164,-0.153 -0.164,-0.566 0,-0.72 -0.632,0.031 -0.492,-0.709 -0.601,-1.2 -0.874,-0.392 -0.228,-2.055 -0.359,-2.64 -0.479,-0.078 -0.093,0.707 -0.601,0.6 0.039,-1.487 0.649,-2.928 0,-4.32 -0.336,0.744 0.004,2.164 -0.72,2.521 -0.302,-0.787 0.37,-1.409 0.24,-2.4 -0.612,-0.092 -0.15,0.891 -0.841,0.72 0.104,-0.602 0.194,-0.93 -0.359,-1.08 0.229,-1.896 0.517,-3.615 -0.36,-5.039 -0.595,0.541 0.672,2.887 -0.359,3.479 -0.146,-0.676 0.317,-1.214 0,-1.68 -0.476,-0.155 -0.245,0.395 -0.721,0.239 -0.475,-0.8 0.491,-1.842 -0.12,-2.64 -0.351,0.169 -0.127,0.913 -0.6,0.96 -0.238,-0.596 0.359,-1.077 0.36,-1.8 -0.606,-0.086 -0.63,0.411 -0.96,0.6 -0.339,-0.364 -0.351,-0.591 -0.24,-1.2 -0.825,0.042 -0.155,-0.703 -0.84,-0.84 0.101,-0.499 0.409,-0.79 0.359,-1.439 -0.57,-0.091 -0.158,0.802 -0.84,0.6 -0.377,-0.759 -0.271,-1.258 -0.24,-2.399 -0.223,-0.115 -0.4,0.359 -0.479,0 -0.094,-0.534 0.16,-0.721 0.12,-1.2 -0.18,-0.021 -0.443,0.043 -0.48,-0.12 -0.299,-1.62 0.965,-2.314 0.721,-3.48 -0.705,0.091 -1.236,-1.625 -2.28,-1.199 -0.203,0.723 0.554,0.485 0.479,1.079 -0.49,-0.102 -0.12,0.34 -0.359,0.721 -0.602,-0.238 -1.032,-0.647 -1.68,-0.84 -0.253,0.558 0.429,0.592 0.239,1.199 -0.612,-0.146 -0.633,-0.887 -1.319,-0.96 -0.075,0.507 0.652,0.607 0.359,0.96 -0.289,0.05 -0.261,-0.219 -0.6,-0.119 -0.115,0.223 0.359,0.4 0,0.479 -0.435,-0.085 -0.622,-0.419 -1.08,-0.479 0.082,0.322 -0.248,0.231 -0.36,0.359 -0.394,-0.486 -0.696,-1.063 -1.319,-1.32 -0.454,0.973 0.736,1.325 0.479,2.041 -0.935,-0.266 -0.835,-1.566 -1.8,-1.801 0.031,0.652 0.656,1.34 0.359,1.92 -0.666,-0.173 -0.574,-1.105 -1.319,-1.199 -0.606,0.572 0.439,1.228 0.12,1.8 -0.478,-0.083 -0.285,-0.835 -0.84,-0.84 -0.167,0.598 0.553,0.707 0.239,1.079 -0.799,0.039 -0.524,-0.995 -1.2,-1.079 0.145,0.501 0.125,0.931 -0.119,1.319 -0.925,-0.164 -0.817,0.703 -1.561,0.721 -0.282,-0.118 -0.199,-0.602 -0.6,-0.601 0.039,0.807 -0.356,0.438 -0.84,0.72 0.016,0.514 0.435,0.612 -0.12,0.841 -0.791,-0.012 -1.19,-1.047 -1.8,-0.841 0.144,0.459 0.82,1.015 0.479,1.561 -0.436,-0.164 -0.592,-0.607 -0.84,-0.96 -0.366,0.099 -0.288,0.337 -0.72,0.12 0.08,0.479 0.36,0.759 0.479,1.199 0.427,0.188 0.072,-0.407 0.36,-0.359 0.001,0.238 0.327,0.152 0.24,0.479 -0.118,0.163 -0.32,0.24 -0.48,0.36 -0.27,-0.21 -0.276,-0.684 -0.72,-0.72 -0.292,0.255 -0.106,1.12 -0.72,0.72 -0.072,0.214 0.352,0.498 0,0.6 -0.514,-0.025 -0.62,0.049 -1.32,-0.239 -0.13,0.77 0.602,0.678 0.6,1.319 -1.077,-0.165 -1.197,-1.707 -2.16,-1.319 0.252,0.63 1.006,1.392 0.84,2.04 -0.27,-0.097 -0.386,-0.965 -0.72,-0.601 0.088,0.202 0.499,0.688 0.24,0.84 -0.524,-0.194 -0.441,-0.999 -1.08,-1.079 -0.229,0.587 0.053,0.754 0.12,1.319 -0.581,-0.057 -0.281,0.839 -0.72,0.601 0.221,0.274 0.646,0.795 0.479,1.08 -0.436,-0.045 -0.445,-0.515 -0.84,-0.601 0.12,0.711 0.366,1.247 -0.24,1.56 -0.133,-0.306 -0.366,-0.513 -0.72,-0.6 -0.23,0.249 -0.139,0.821 -0.36,1.08 -0.341,-0.219 -0.438,-0.683 -0.84,-0.84 0.067,0.533 0.316,0.884 0.48,1.32 -0.153,0.006 -0.166,0.153 -0.36,0.119 0.109,0.411 0.297,0.744 0.36,1.2 -0.207,0.048 -0.308,-0.178 -0.36,0 0.4,0.28 0.57,0.79 0.601,1.44 -0.23,0.056 -0.518,-0.37 -0.48,0.12 0.917,0.828 0.708,2.048 1.2,3.239 -0.296,0.017 -0.578,0.019 -0.72,-0.119 0.25,0.457 -0.118,0.82 0.239,1.08 0.531,0.091 0.096,-0.785 0.72,-0.601 0.064,0.464 -0.214,0.586 -0.119,1.08 0.57,0.275 0.771,1.858 0.239,2.16 0.146,0.375 0.519,0.521 0.601,0.96 -0.604,0.343 0.441,1.377 0,1.92 -0.39,-0.011 -0.085,-0.716 -0.601,-0.6 0.787,1.74 0.783,3.433 0.841,5.279 -0.234,0.166 -0.369,0.432 -0.721,0.48 -0.07,1.22 0.368,1.742 0.36,3.12 -0.229,0.225 -0.218,-0.071 -0.601,0 0.252,0.915 -0.254,1.06 -0.119,1.68 0.045,0.275 0.479,0.16 0.6,0.36 -0.429,0.818 -0.168,1.928 -0.6,2.52 0.497,0.758 0.501,2.706 -0.48,3 0.254,0.787 -0.574,1.454 0,1.8 0.142,-0.226 0.373,-0.978 0.6,-0.72 0.02,0.459 0.072,0.951 -0.359,0.96 -0.065,0.425 0.425,0.295 0.359,0.72 -0.543,1.453 0.585,3.584 -0.239,5.28 -0.268,-0.492 -0.258,-1.263 -0.24,-2.04 -0.722,0.435 -0.384,2.623 0.12,3 -0.238,0.806 0.145,2.106 -0.6,2.641 0.195,1.05 -0.037,1.824 -0.48,2.52 0.251,0.109 0.365,0.354 0.359,0.72 -0.139,0.101 -0.321,0.158 -0.6,0.12 0.158,2.01 0.957,3.74 -0.12,5.4 0.309,0.291 0.318,0.882 0.36,1.439 -0.369,0.09 -0.23,-0.329 -0.6,-0.24 0.095,0.561 1.074,1.051 0.359,1.681 -0.12,0 -0.24,0 -0.359,0 -0.426,-0.095 -0.143,-0.897 -0.721,-0.84 0.251,0.909 0.242,2.078 1.08,2.399 -0.074,0.846 0.251,1.197 0,1.92 -0.251,-0.068 -0.342,-0.297 -0.72,-0.239 -0.069,0.39 0.082,0.558 0.12,0.84 0.447,-0.048 0.704,0.096 0.72,0.479 -0.568,0.165 0.215,0.629 -0.12,0.84 -0.27,-0.058 -0.898,-0.37 -1.08,-0.119 0.192,0.168 0.307,0.413 0.36,0.72 -0.18,0.021 -0.443,-0.043 -0.48,0.12 0.345,0.295 0.242,1.038 0.841,1.08 0.011,-0.469 0.086,-0.874 0.479,-0.96 0.257,0.654 0.506,2.158 0.24,2.64 -0.544,-0.137 -0.436,-0.925 -1.08,-0.96 0.226,0.935 0.632,1.771 1.319,1.92 -0.099,0.339 0.17,0.311 0.121,0.6 -0.307,0.206 -0.421,-0.137 -0.601,0.12 1.1,0.945 0.807,2.549 1.68,3.721 -0.02,0.14 -0.189,0.13 -0.359,0.119 0.675,1.238 1.613,2.25 1.8,3.721 0.217,1.715 -0.748,3.115 -1.92,3.96 -1.047,0.754 -2.664,0.864 -4.08,1.08 -1.99,0.303 -3.697,0.87 -5.16,1.439 -3.603,2.831 -9.553,5.052 -15.24,6.12 -3.483,0.654 -7.241,1.931 -10.68,1.92 -1.834,0.887 -3.624,1.816 -5.64,2.521 -0.785,0.064 -1.366,-0.074 -2.04,-0.12 -0.001,0.158 -0.21,0.109 -0.24,0.24 -0.121,0.002 -0.241,0.002 -0.362,0.002 z"
   id="path3"
   style="fill-rule:evenodd" />
</svg>